<svg width="128" height="128" viewBox="0 0 128 128" fill="none" xmlns="http://www.w3.org/2000/svg">
<path d="M81.0001 28.09C74.9401 27.89 68.8001 28 62.6701 28C56.5401 28 50.4301 28.25 44.3301 28.61C39.8701 28.86 35.4401 29.29 31.0301 29.8C27.158 30.2201 23.3167 30.8882 19.5301 31.8C17.6904 32.2193 15.9003 32.8327 14.1901 33.63C13.423 33.9745 12.7145 34.4367 12.0901 35L11.7701 35.42C11.6927 35.5497 11.629 35.6871 11.5801 35.83L11.4201 36.45L11.2801 37.13C10.9614 39.0374 10.7411 40.9599 10.6201 42.89C10.4701 44.89 10.3701 46.8 10.2901 48.76C10.1301 52.69 10.0801 56.62 10.0901 60.56C10.0901 67.56 10.4301 74.56 11.0301 81.47C11.4101 85.9033 11.9401 90.3167 12.6201 94.71C13.2467 99.0783 14.1586 103.401 15.3501 107.65C16.2001 110.2 15.4901 110.17 14.0501 108.14C12.6101 106.11 10.9501 101.91 10.0501 96.76C8.67417 87.6701 7.88255 78.5013 7.68011 69.31C7.35441 60.0959 7.55808 50.8707 8.29011 41.68C8.44011 40.29 8.57011 38.9 8.80011 37.48C8.91488 36.735 9.0718 35.9972 9.27011 35.27C9.39771 34.8124 9.60782 34.382 9.89011 34L10.3101 33.45L10.7701 33.02C11.9658 32.0355 13.3178 31.2581 14.7701 30.72C16.1532 30.1979 17.5656 29.7571 19.0001 29.4C24.5573 28.0855 30.2073 27.1995 35.9001 26.75C48.2901 25.65 60.7001 25.45 73.0801 25.44C76.9001 25.44 80.7201 25.51 84.5401 25.71C88.3859 25.8672 92.2156 26.2983 96.0001 27C97.4703 27.2817 98.9126 27.6934 100.31 28.23C101.044 28.5162 101.739 28.8924 102.38 29.35C103.015 29.8225 103.563 30.401 104 31.06C104.86 32.3031 105.565 33.6463 106.1 35.06C106.643 36.4267 107.11 37.8221 107.5 39.24C108.941 44.8572 109.944 50.5777 110.5 56.35C111.44 65.23 111.97 73.96 112.19 82.78C112.19 84.72 112.29 86.62 112.29 88.58C112.29 95.84 111.99 98.15 111.29 99.68C111.153 100.027 110.986 100.362 110.79 100.68C110.23 101.35 109.94 98.39 109.87 93.11C109.76 85.28 109.54 77.23 109.06 69.11C108.67 60.9306 107.738 52.786 106.27 44.73C105.725 41.794 104.918 38.9125 103.86 36.12C103.359 34.804 102.687 33.56 101.86 32.42C101.678 32.1783 101.477 31.951 101.26 31.74L100.98 31.5L100.64 31.26C100.083 30.9243 99.4934 30.6462 98.8801 30.43C96.0578 29.5335 93.1422 28.9631 90.1901 28.73C87.1901 28.42 84.1001 28.26 81.0301 28.17L81.0001 28.09Z" fill="#111827"/>
<path d="M79.56 79.91C78.7244 79.5369 77.8533 79.2488 76.96 79.05L76.33 78.9C76.2 78.9 76.16 79.01 76.13 79.11C76.1 79.21 76.13 79.11 76.13 79.32C76.13 79.53 76.13 79.64 76.13 79.81V80.81C76.0861 83.3503 76.1863 85.891 76.43 88.42C76.54 89.56 76.72 90.68 76.94 91.79L77.4 93.91C77.53 94.62 77.61 95.33 77.69 96.04C77.69 96.48 77.35 96.55 76.84 96.29C76.1728 95.9204 75.6641 95.3192 75.41 94.6C74.6633 91.6543 74.2342 88.6371 74.13 85.6C74.13 83.77 73.82 81.9 73.88 79.96C73.88 79.69 73.88 79.43 73.94 79.15C73.9506 78.9724 73.9706 78.7955 74 78.62C74 78.42 74.07 78.22 74.12 78.02C74.2127 77.6526 74.387 77.3107 74.63 77.02C74.7506 76.8768 74.9057 76.7667 75.0807 76.7002C75.2557 76.6338 75.4448 76.613 75.63 76.64H76.79C77.12 76.64 77.34 76.75 77.63 76.8C78.1554 76.9182 78.673 77.0685 79.18 77.25C80.3893 77.689 81.5685 78.2068 82.71 78.8C84.43 79.68 86.04 80.71 87.71 81.67C88.97 82.42 90.27 83.05 91.54 83.67C91.82 83.82 92.11 83.93 92.38 84.09C92.7637 84.2508 93.0933 84.518 93.33 84.86C93.4746 85.1293 93.5172 85.4418 93.45 85.74C93.45 85.91 93.45 86.08 93.38 86.23C93.26 86.73 92.58 86.91 91.69 86.64C89.2665 85.5248 86.9416 84.2068 84.74 82.7C83.0788 81.6675 81.3403 80.7648 79.54 80L79.56 79.91Z" fill="#111827"/>
<path d="M88.8002 91.84C90.0002 93.01 91.2302 94.16 92.5002 95.26C92.9602 95.67 93.5002 96 93.9402 96.4C95.5902 97.82 97.2702 99.18 99.0202 100.46C99.7932 101.018 100.605 101.519 101.45 101.96C102.52 102.49 103.63 103.07 104.57 103.45C104.83 103.55 104.88 103.97 104.47 104.37C104.195 104.596 103.87 104.752 103.522 104.825C103.173 104.898 102.813 104.886 102.47 104.79C101.188 104.397 99.9666 103.828 98.8402 103.1C97.7195 102.432 96.6677 101.655 95.7002 100.78C94.5302 99.78 93.1702 98.9 91.9402 97.9C90.7102 96.9 89.2502 95.67 88.0002 94.5C87.2102 93.78 86.4402 93.04 85.6702 92.3C84.5102 91.17 83.4002 89.98 82.2802 88.82C81.4102 87.91 80.4702 87.08 79.6302 86.08C79.4502 85.86 79.2502 85.64 79.0902 85.4C78.9444 85.2086 78.8358 84.9915 78.7702 84.76C78.7146 84.596 78.6909 84.4229 78.7002 84.25C78.774 83.9615 78.9304 83.7009 79.1502 83.5C79.2381 83.4139 79.3317 83.3337 79.4302 83.26C79.5231 83.2126 79.6259 83.1879 79.7302 83.1879C79.8345 83.1879 79.9373 83.2126 80.0302 83.26C80.3309 83.3306 80.6093 83.4749 80.8402 83.68C82.2002 85.09 83.6802 86.68 85.2602 88.28C86.4302 89.46 87.6302 90.64 88.8702 91.79L88.8002 91.84Z" fill="#111827"/>
<path d="M64.5701 80.77C64.8201 80.77 64.8802 81.15 64.6602 81.61C64.5375 81.8144 64.3741 81.9914 64.1801 82.13L63.7801 82.29C63.7201 82.29 62.7801 82.12 62.3801 82.12C62.0398 82.0948 61.704 82.0276 61.3801 81.92C60.7301 81.74 60.0801 81.52 59.3801 81.34C59.2336 81.2959 59.0951 81.2283 58.9701 81.14C58.5272 80.8424 58.02 80.6539 57.4902 80.59C57.4002 80.59 57.3201 80.59 57.2101 80.59C56.6321 80.5989 56.0569 80.5076 55.5101 80.32C55.1001 80.08 54.6901 79.86 54.2701 79.64C54.2001 79.64 54.1301 79.64 54.0901 79.52C53.9901 79.25 53.8401 79.28 53.7101 79.24C53.5111 79.1828 53.3222 79.0951 53.1502 78.98C53.0528 78.8798 52.9626 78.7728 52.8801 78.66C52.8505 78.5957 52.8352 78.5258 52.8352 78.455C52.8352 78.3842 52.8505 78.3143 52.8801 78.25C52.9701 78.16 52.8801 78.02 52.8801 77.9C52.8752 77.8568 52.8752 77.8132 52.8801 77.77C53.0789 77.5836 53.3048 77.4285 53.5501 77.31C53.795 77.1646 54.0618 77.0599 54.3401 77H55.3401C55.8301 77 56.3401 77.06 56.4501 77C56.5608 77.0191 56.6644 77.0674 56.7501 77.14C56.7501 77.14 58.2401 77.3 58.3001 77.33C58.5801 77.44 58.8901 77.43 59.1101 77.72C59.1101 77.78 59.2201 77.78 59.2701 77.8C59.7659 77.9337 60.2455 78.1215 60.7001 78.36C60.9301 78.47 61.1901 78.53 61.4301 78.62C61.4301 78.62 61.5101 78.68 61.5501 78.71C61.5935 78.7523 61.6444 78.7862 61.7001 78.81C62.2901 79 62.8001 79.38 63.4002 79.57C63.5402 79.57 64.0602 80.16 64.2302 80.22C64.4002 80.28 64.4701 80.77 64.5701 80.77Z" fill="#111827"/>
<path d="M71.2002 72.16C71.4302 72.16 71.2602 72.37 71.2002 72.92C71.2002 73.09 70.9802 73.55 70.8802 73.58C70.6881 73.6326 70.4893 73.6562 70.2902 73.65C69.7669 73.4314 69.2591 73.1775 68.7702 72.89C68.4496 72.7141 68.1592 72.4879 67.9102 72.22C67.3902 71.7 66.9102 71.22 66.3902 70.68C66.2841 70.5586 66.1995 70.42 66.1402 70.27C65.9198 69.7694 65.6116 69.3122 65.2302 68.92C65.1702 68.86 65.1302 68.77 65.0002 68.76C64.5232 68.3695 64.1346 67.8821 63.8602 67.33C63.8002 67.07 63.7302 66.84 63.6602 66.59L63.4902 65.82C63.4902 65.75 63.4202 65.69 63.4902 65.58C63.6502 65.31 63.5402 65.2 63.4902 65.05C63.4187 64.8137 63.3982 64.5648 63.4302 64.32C63.4774 64.1517 63.5592 63.995 63.6702 63.86C63.7502 63.74 63.9602 63.77 64.0102 63.79C64.0602 63.81 64.2202 63.79 64.3102 63.79H64.4202C64.6504 63.848 64.8774 63.9181 65.1002 64C65.3191 64.0811 65.5273 64.1885 65.7202 64.32C65.7202 64.32 65.9902 64.61 66.2902 64.9C66.5902 65.19 66.8702 65.54 66.9402 65.59C67.0102 65.64 67.0202 65.77 67.0402 65.87C67.0602 65.97 67.9802 66.81 68.0402 66.87C68.1802 67.1 68.4202 67.25 68.3902 67.6C68.3902 67.67 68.3902 67.7 68.4702 67.74C68.7486 68.1086 68.9897 68.5039 69.1902 68.92C69.319 69.1117 69.4592 69.2953 69.6102 69.47C69.6143 69.5132 69.6143 69.5568 69.6102 69.6C69.6131 69.6583 69.634 69.7142 69.6702 69.76C69.9661 70.2053 70.3007 70.6236 70.6702 71.01C70.7702 71.1 70.9802 71.69 71.1002 71.76C71.2202 71.83 71.1102 72.15 71.2002 72.16Z" fill="#111827"/>
<path d="M81.42 69.81C81.57 69.9 81.32 69.97 80.88 70.27C80.6768 70.3978 80.4482 70.4797 80.21 70.51C80.0434 70.4492 79.888 70.3614 79.75 70.25C79.6326 70.0352 79.5419 69.8068 79.48 69.57C79.39 69.25 79.3 68.88 79.27 68.71C79.2104 68.3793 79.2104 68.0407 79.27 67.71C79.3639 67.087 79.4907 66.4695 79.65 65.86C79.6888 65.7224 79.7532 65.5935 79.84 65.48C80.1184 65.0984 80.3127 64.6622 80.41 64.2C80.428 64.1608 80.4373 64.1181 80.4373 64.075C80.4373 64.0318 80.428 63.9892 80.41 63.95C80.465 63.4258 80.6431 62.9221 80.93 62.48C81.26 62.18 81.54 61.86 81.86 61.56C81.86 61.56 81.86 61.45 82.03 61.45C82.31 61.45 82.34 61.34 82.42 61.24C82.5569 61.1087 82.7118 60.9976 82.88 60.91C83.0128 60.8926 83.1473 60.8926 83.28 60.91C83.4 60.91 83.65 61.14 83.67 61.18C83.69 61.22 83.89 61.35 84.01 61.43L84.13 61.52C84.1872 61.7229 84.2274 61.9303 84.25 62.14C84.3053 62.3451 84.3256 62.5581 84.31 62.77C84.31 62.77 84.18 63.08 84.07 63.4C83.9827 63.6423 83.9092 63.8893 83.85 64.14C83.85 64.22 83.75 64.26 83.69 64.32C83.63 64.38 83.43 65.32 83.41 65.39C83.31 65.58 83.31 65.8 83.03 65.93C82.98 65.93 82.97 66 82.96 66.04C82.8432 66.3873 82.6925 66.7222 82.51 67.04C82.4449 67.212 82.3947 67.3893 82.36 67.57C82.36 67.57 82.36 67.63 82.28 67.66C82.2481 67.6864 82.2239 67.721 82.21 67.76C82.0634 68.16 81.966 68.5764 81.92 69C81.92 69.1 81.64 69.49 81.67 69.59C81.7 69.69 81.36 69.77 81.42 69.81Z" fill="#111827"/>
<path d="M25.6502 43C25.9888 43.0745 26.3033 43.2325 26.5653 43.4595C26.8273 43.6866 27.0283 43.9755 27.1502 44.3C28.3102 47.41 23.0602 47.59 23.0902 44.82C23.1052 44.5181 23.1885 44.2234 23.3338 43.9583C23.479 43.6932 23.6825 43.4644 23.9289 43.2892C24.1753 43.1141 24.4582 42.997 24.7563 42.9469C25.0545 42.8968 25.3601 42.915 25.6502 43Z" fill="#111827"/>
<path d="M33.6302 42.16C33.968 42.2327 34.2823 42.3889 34.5443 42.6142C34.8063 42.8395 35.0077 43.1269 35.1302 43.45C36.2902 46.56 31.0402 46.74 31.0702 43.97C31.0866 43.6689 31.171 43.3755 31.3168 43.1116C31.4627 42.8477 31.6664 42.6202 31.9126 42.4461C32.1588 42.272 32.4412 42.1558 32.7386 42.1063C33.0361 42.0568 33.3409 42.0751 33.6302 42.16Z" fill="#111827"/>
<path d="M41.6102 41.3C41.9473 41.3778 42.2603 41.537 42.5217 41.7636C42.7832 41.9902 42.9852 42.2773 43.1102 42.6C44.2702 45.71 39.0202 45.89 39.0502 43.12C39.0652 42.818 39.1484 42.5234 39.2937 42.2583C39.439 41.9932 39.6425 41.7644 39.8889 41.5892C40.1353 41.414 40.4182 41.297 40.7163 41.2469C41.0144 41.1968 41.3201 41.215 41.6102 41.3Z" fill="#111827"/>
<path d="M66.4102 111.4C62.2802 111.54 58.1502 111.63 54.0202 111.7C52.5102 111.7 51.0202 111.8 49.5002 111.81C44.1802 111.81 38.8702 111.75 33.5602 111.64C31.2002 111.64 28.8302 111.64 26.5002 111.64H22.0002C20.5202 111.64 19.0002 111.64 17.6402 111.64C17.5233 111.679 17.397 111.679 17.2802 111.64C17.199 111.585 17.1307 111.514 17.0802 111.43C16.9502 111.26 17.0102 110.89 17.4202 110.54C18.5783 109.692 19.9852 109.252 21.4202 109.29C27.5902 109.29 33.6602 109.5 39.8302 109.74C43.5202 109.89 47.3602 109.74 51.1302 109.68C55.2769 109.62 59.4269 109.523 63.5802 109.39C66.1302 109.31 68.6902 109.22 71.2402 109.09C75.1002 108.91 78.9802 108.7 82.8102 108.4C85.8102 108.15 88.6902 107.78 91.6302 107.4L93.5502 107.17C95.9702 106.92 96.7502 106.99 97.3202 107.51C97.4584 107.617 97.5857 107.738 97.7002 107.87C97.9802 108.29 97.0202 108.74 95.2602 109.02C90.0202 109.87 84.4702 110.38 78.8802 110.76C74.7302 111.04 70.5502 111.24 66.3802 111.43L66.4102 111.4Z" fill="#111827"/>
<path d="M64.7702 112.71C61.2035 112.83 57.6336 112.927 54.0602 113L50.1602 113.1C45.5702 113.15 40.9802 113.1 36.3902 113.1H30.2902C27.7002 113.1 25.0902 113.1 22.5202 113.03C20.9002 112.97 22.9302 111.67 25.9402 111.69C31.2402 111.69 36.5102 111.85 41.8502 111.97C45.0402 112.06 48.3602 111.97 51.6202 111.88C55.2002 111.81 58.7902 111.73 62.3802 111.6C64.5902 111.53 66.7902 111.42 69.0002 111.32C72.3402 111.16 75.7002 110.99 79.0002 110.74C81.5702 110.53 84.0902 110.28 86.6302 110L88.2902 109.82C90.3902 109.63 91.0602 109.66 91.5402 109.96C91.6527 110.021 91.7598 110.091 91.8602 110.17C92.0802 110.42 91.2402 110.7 89.7202 110.91C85.1802 111.52 80.3802 111.91 75.5502 112.23C71.9702 112.47 68.3602 112.64 64.7602 112.81L64.7702 112.71Z" fill="#111827"/>
<path d="M101.2 17.62C101.2 17.93 101.05 18.25 100.99 18.55C100.99 18.67 100.99 18.78 100.99 18.89C100.89 19.29 100.75 19.68 100.66 20.07C100.625 20.2416 100.625 20.4184 100.66 20.59C100.66 20.81 100.83 21.03 100.66 21.25C100.49 21.47 98.6601 21.25 98.6601 20.96C98.5887 20.5043 98.677 20.038 98.9101 19.64C99.0601 19.37 98.9101 19.1 98.9801 18.83L99.0901 17.93C99.1232 17.7447 99.1466 17.5578 99.1601 17.37C99.195 17.0944 99.195 16.8156 99.1601 16.54C99.093 16.3273 99.0025 16.1227 98.8901 15.93C98.8901 15.93 98.8301 15.84 98.8901 15.79C98.9501 15.74 98.8901 15.64 99.0801 15.59C99.2322 15.5316 99.3896 15.4881 99.5501 15.46L99.8201 15.4C100.111 15.3648 100.405 15.3991 100.68 15.5C100.886 15.622 101.057 15.7944 101.178 16.0008C101.298 16.2072 101.365 16.4409 101.37 16.68C101.37 16.99 101.37 17.31 101.37 17.62H101.2Z" fill="#111827"/>
<path d="M115.53 25.24L113.86 25.85C113.66 25.93 113.48 26.05 113.27 26.12L111.06 26.81C110.736 26.9163 110.422 27.0502 110.12 27.21C109.751 27.4495 109.329 27.5938 108.89 27.63C108.61 27.63 108.44 26.23 108.89 25.99C109.619 25.5554 110.403 25.2192 111.22 24.99C111.714 24.8064 112.184 24.5647 112.62 24.27C113.14 24 113.68 23.78 114.22 23.53L115.22 23.08C115.72 22.84 116.22 22.63 116.72 22.35C117.22 22.07 117.39 21.8 117.72 21.59C117.798 21.5369 117.882 21.4933 117.97 21.46C118.31 21.36 118.48 21.46 118.73 21.84C118.73 21.93 118.85 22.01 118.9 22.1C118.976 22.2359 119.016 22.3891 119.016 22.545C119.016 22.7008 118.976 22.854 118.9 22.99C118.514 23.6925 117.9 24.2426 117.16 24.55C116.64 24.8 116.1 25.02 115.56 25.26L115.53 25.24Z" fill="#111827"/>
<path d="M78.1501 33.55C72.9001 33.38 67.6001 33.44 62.3201 33.49C57.0401 33.54 51.7601 33.71 46.5001 34.01C42.6601 34.24 38.8301 34.6 35.0301 35.01C31.6871 35.3588 28.3702 35.9233 25.1001 36.7C23.5118 37.0619 21.9665 37.5916 20.4901 38.28C19.8271 38.5987 19.2167 39.0169 18.6801 39.52L18.4001 39.89C18.3316 40.0041 18.2746 40.1247 18.2301 40.25C18.1317 40.632 18.0549 41.0193 18.0001 41.41C17.5187 44.7235 17.2349 48.0628 17.1501 51.41C17.0201 54.8 16.9701 58.19 16.9801 61.58C16.9801 67.58 17.2801 73.67 17.7901 79.58C18.1201 83.4 18.5701 87.22 19.1601 91C19.7 94.7679 20.4884 98.4961 21.5201 102.16C22.2601 104.36 21.6601 104.33 20.4401 102.58C18.6769 99.5779 17.5089 96.2642 17.0001 92.82C15.826 84.9811 15.158 77.0748 15.0001 69.15C14.7143 61.2033 14.8879 53.2467 15.5201 45.32C15.6401 44.13 15.7501 42.93 15.9501 41.7C16.0488 41.0591 16.1857 40.4246 16.3601 39.8C16.4648 39.4059 16.6447 39.0357 16.8901 38.71L17.2401 38.24L17.6401 37.87C18.6661 37.0094 19.8333 36.3327 21.0901 35.87C22.2638 35.424 23.4625 35.0467 24.6801 34.74C29.4744 33.607 34.3488 32.8448 39.2601 32.46C49.9301 31.51 60.6301 31.33 71.3101 31.32C74.6001 31.32 77.9001 31.38 81.2001 31.55C84.4887 31.6905 87.7634 32.0614 91.0001 32.66C92.2647 32.907 93.5059 33.2617 94.7101 33.72C95.3412 33.9811 95.9388 34.3169 96.4901 34.72C97.0772 35.1078 97.5889 35.5991 98.0001 36.17C98.7489 37.234 99.3573 38.3902 99.8101 39.61C100.285 40.7848 100.689 41.9869 101.02 43.21C102.242 48.0664 103.078 53.0118 103.52 58C104.34 65.66 104.79 73.19 104.97 80.79C104.97 82.47 105.06 84.1 105.06 85.79C105.06 92.05 104.8 94.04 104.2 95.37C104.08 95.6691 103.94 95.9598 103.78 96.24C103.31 96.81 103.07 94.24 103.02 89.71C102.93 82.95 102.74 76.01 102.33 69C101.989 61.9552 101.187 54.9402 99.9301 48C99.4534 45.4634 98.7541 42.9738 97.8401 40.56C97.4211 39.4263 96.8528 38.3535 96.1501 37.37C95.9974 37.153 95.8232 36.952 95.6301 36.77L95.3901 36.56L95.0901 36.35C94.6058 36.0588 94.0932 35.8176 93.5601 35.63C91.1237 34.8579 88.6076 34.3648 86.0601 34.16C83.4501 33.89 80.8101 33.75 78.1601 33.68L78.1501 33.55Z" fill="#111827"/>
<path d="M65.2101 105.87H54.7101L50.8701 105.93C46.3701 105.93 41.8701 105.82 37.3601 105.76C35.3601 105.76 33.3601 105.76 31.3601 105.76C28.8008 105.823 26.2405 105.696 23.7001 105.38C22.1201 105.18 24.2201 104.29 27.1201 104.2C32.2801 104.2 37.4701 104.2 42.7001 104.32C45.8301 104.38 49.0901 104.24 52.2901 104.2L62.8601 104.06L69.3701 103.95C72.6501 103.87 75.9501 103.82 79.2101 103.68C81.7401 103.58 84.2101 103.37 86.7301 103.21C87.2801 103.21 87.8201 103.11 88.3701 103.11C90.4401 103.11 91.1001 103.28 91.5501 103.67C91.659 103.753 91.7595 103.847 91.8501 103.95C92.0601 104.24 91.2201 104.55 89.7201 104.8C85.0992 105.347 80.4528 105.65 75.8001 105.71L65.2101 105.91V105.87Z" fill="#111827"/>
<path d="M14.5502 78C14.3402 74.86 14.2002 71.72 14.0702 68.58C14.0202 67.44 13.9002 66.29 13.8802 65.15C13.7902 61.15 13.8202 57.06 13.9402 53.02C14.0102 51.22 14.0002 49.41 14.0502 47.62C14.1402 45.32 14.0502 42.98 14.9602 40.62C15.2702 39.88 15.8602 40.27 16.3602 41.01C16.9709 41.8869 17.2702 42.9431 17.2102 44.01C16.8402 48.45 16.8602 53.08 16.5402 57.73C16.3702 60.52 16.6102 63.41 16.7102 66.27C16.8202 69.4 16.9502 72.54 17.1402 75.68C17.2502 77.61 17.3802 79.54 17.5502 81.46C17.8102 84.38 18.0302 87.31 18.4602 90.18C18.8126 92.3755 19.2765 94.5517 19.8502 96.7C19.9702 97.17 20.1202 97.62 20.2502 98.08C20.4344 98.6654 20.5748 99.2637 20.6702 99.87C20.6924 100.217 20.6162 100.564 20.4502 100.87C20.3902 101.01 20.3602 101.17 20.3202 101.27C20.2802 101.37 20.0502 101.41 19.6602 101.19C19.4292 101.063 19.2334 100.881 19.0902 100.66C18.8857 100.403 18.7205 100.116 18.6002 99.81C17.796 97.8691 17.1636 95.8614 16.7102 93.81C16.2402 91.74 15.8502 89.63 15.5302 87.52C15.0202 84.38 14.7402 81.21 14.5302 78.04L14.5502 78Z" fill="#111827"/>
</svg>
