<svg width="128" height="128" viewBox="0 0 128 128" fill="none" xmlns="http://www.w3.org/2000/svg">
<path d="M113.83 16.52C113.871 16.3841 113.939 16.2577 114.029 16.1482C114.119 16.0387 114.231 15.9483 114.356 15.8822C114.482 15.8162 114.619 15.7757 114.761 15.7633C114.902 15.7509 115.045 15.7668 115.18 15.81C118 16.68 112.91 19.48 113.83 16.52Z" stroke="#111827" stroke-miterlimit="10"/>
<path d="M77.4 57.09C77.4852 56.817 77.6751 56.589 77.9282 56.4559C78.1813 56.3228 78.4768 56.2955 78.75 56.38C81.57 57.25 76.48 60.05 77.4 57.09Z" stroke="#111827" stroke-miterlimit="10"/>
<path d="M20.9999 42.23C21.0853 41.9568 21.2748 41.7281 21.5274 41.5934C21.78 41.4586 22.0754 41.4287 22.3499 41.51C25.1199 42.39 19.9999 45.18 20.9999 42.23Z" stroke="#111827" stroke-miterlimit="10"/>
<path d="M52.5699 66.76C56.2295 65.7504 60.051 65.465 63.8199 65.92L69.2099 66.41C70.9398 66.5269 72.6766 66.4901 74.3999 66.3C76.9999 66.09 79.5999 65.75 82.1999 65.46L89.0899 64.64C90.2499 64.5 91.34 64.33 92.5799 64.21C93.7943 64.105 95.0155 64.105 96.2299 64.21C98.7828 64.2982 101.239 65.2103 103.23 66.81C103.732 67.2522 104.173 67.7601 104.54 68.32C104.77 68.6643 104.922 69.0552 104.984 69.4648C105.047 69.8745 105.018 70.2928 104.9 70.69C104.633 71.3973 104.15 72.0025 103.52 72.42C102.995 72.7817 102.436 73.0899 101.85 73.34C99.87 74.1054 97.8155 74.6618 95.7199 75C93.7199 75.4 91.5999 75.66 89.5799 75.9C84.3899 76.52 79.24 77.35 74.7999 79.9C73.46 80.74 73.4199 80.43 74.3299 79.29C75.9392 77.4217 78.0706 76.0774 80.4499 75.43C85.8599 73.89 91.2999 73.91 96.3599 72.79C97.6139 72.5382 98.8499 72.2041 100.06 71.79C100.626 71.5959 101.171 71.3481 101.69 71.05C102.088 70.8398 102.431 70.5382 102.69 70.17C102.82 69.93 102.79 69.94 102.69 69.59C102.58 69.3845 102.446 69.1931 102.29 69.02C102.124 68.8043 101.937 68.6066 101.73 68.43C100.86 67.6783 99.8358 67.1255 98.7299 66.81C97.2704 66.3988 95.7551 66.22 94.2399 66.28C93.4601 66.3015 92.6821 66.3683 91.91 66.48L89.4399 66.83C86.1499 67.3 82.85 67.75 79.5499 68.11C77.74 68.31 75.9299 68.5 74.0999 68.64C73.1799 68.71 72.27 68.78 71.3299 68.8C70.8599 68.8 70.3299 68.8 69.8599 68.8L68.4899 68.69C64.9388 68.2408 61.3573 68.077 57.7799 68.2C55.639 68.3601 53.5366 68.8562 51.5499 69.67C49.5329 70.5295 47.6368 71.649 45.9099 73C43.2799 75 40.7099 77.3 38.08 79.43C35.45 81.56 32.7999 83.7 30.0799 85.71C25.9353 88.8734 21.5932 91.7693 17.0799 94.38C16.0799 94.92 15.0799 95.5 14.0799 96.02C12.7224 96.6962 11.3108 97.2582 9.85995 97.7C9.18567 97.8995 8.48194 97.9807 7.77995 97.94C7.55533 97.9389 7.3312 97.9188 7.10995 97.88C6.85995 97.81 7.10995 97.54 7.74995 97.08C8.71259 96.4228 9.71446 95.8251 10.7499 95.29C19.0999 90.7981 26.9878 85.4959 34.2999 79.46C37.0999 77.19 39.8399 74.84 42.6599 72.46C45.5299 69.8846 48.8904 67.9152 52.5399 66.67L52.5699 66.76Z" fill="#111827"/>
<path d="M69.31 93.87C72.78 93.71 76.2099 93.61 79.59 93.27C81.2799 93.1 82.9599 92.88 84.59 92.59C85.4131 92.4578 86.2279 92.2775 87.03 92.05L88.18 91.72C88.57 91.62 88.94 91.41 89.32 91.27C91.5517 90.2807 93.6846 89.082 95.69 87.69C99.3157 85.2251 102.761 82.5049 106 79.55C109.274 76.6041 112.373 73.4688 115.28 70.16C116.56 68.7347 117.721 67.2062 118.75 65.59C119.254 64.8345 119.635 64.0043 119.88 63.13C120.001 62.7313 120.062 62.3167 120.06 61.9C120.07 61.5912 120.001 61.2849 119.86 61.01C119.773 60.8933 119.644 60.8146 119.5 60.79C119.325 60.7542 119.145 60.7542 118.97 60.79C118.426 60.9178 117.899 61.1092 117.4 61.36C116.319 61.9102 115.273 62.5281 114.27 63.21L111.22 65.33L109.7 66.41C109.19 66.77 108.64 67.08 108.13 67.41C106.83 68.28 106.8 67.94 107.52 66.73C108.677 64.7272 110.248 62.9951 112.13 61.65C113.36 60.7869 114.654 60.018 116 59.35C116.743 58.9694 117.529 58.6774 118.34 58.48C118.586 58.4209 118.837 58.3841 119.09 58.37C119.425 58.3472 119.761 58.3708 120.09 58.44C120.448 58.5068 120.788 58.6463 121.09 58.85C121.367 59.0607 121.613 59.3099 121.82 59.59C122.222 60.261 122.436 61.0278 122.44 61.81C122.441 62.4115 122.361 63.0104 122.2 63.59C121.92 64.6165 121.485 65.5944 120.91 66.49C119.881 68.1366 118.731 69.7042 117.47 71.18C115.026 74.061 112.39 76.7739 109.58 79.3C104.94 83.48 100.07 87.83 94.52 91.17C92.9749 92.0917 91.3599 92.8908 89.69 93.56C88.8302 93.8876 87.952 94.1648 87.06 94.39C86.18 94.58 85.32 94.76 84.45 94.9C80.9735 95.4459 77.467 95.7799 73.95 95.9C69.66 96.11 65.39 96.22 61.17 96.7C59.621 96.9506 58.1004 97.3526 56.63 97.9C55.12 98.4 53.63 99.02 52.13 99.63C49.13 100.88 46.25 102.28 43.38 103.72C38.93 105.99 34.7 108.46 30.53 111.06C29.6 111.63 28.73 112.22 27.81 112.81C24.42 114.99 23.36 115.62 22.34 115.73C22.1 115.73 21.83 115.84 21.67 115.84C21.14 115.91 22.06 114.27 24.51 112.46C28.2047 109.769 32.0657 107.314 36.07 105.11C40.07 102.84 44.3 100.69 48.6 98.71C51.8344 97.1914 55.1768 95.9146 58.6 94.89C59.0597 94.7577 59.5273 94.6541 60 94.58C60.4589 94.4813 60.9229 94.4079 61.39 94.36L64 94.14C65.77 94 67.52 93.9 69.27 93.81L69.31 93.87Z" fill="#111827"/>
<path d="M31.57 102.47C30.8821 102.14 30.2142 101.769 29.57 101.36C28.933 100.949 28.3249 100.494 27.75 100C27.3117 99.6548 26.8912 99.2877 26.49 98.9C25.2014 97.4544 24.185 95.7876 23.49 93.98C23.35 93.58 23.19 93.2 23.03 92.81C22.87 92.42 22.77 92.02 22.63 91.63C22.2438 90.6335 22.0307 89.5783 22 88.51C22 88.17 22.38 88.16 22.81 88.35C23.0631 88.4506 23.293 88.6018 23.4856 88.7944C23.6782 88.987 23.8294 89.2169 23.93 89.47C24.5658 91.317 25.3207 93.1208 26.19 94.87C26.4772 95.3867 26.812 95.8755 27.19 96.33C27.63 96.73 28.03 97.19 28.5 97.56C28.9673 98.0053 29.4689 98.4132 30 98.78C30.5449 99.149 31.1127 99.4831 31.7 99.78C32.4437 100.164 33.212 100.498 34 100.78C35.2042 101.235 36.4502 101.57 37.72 101.78C38.7158 101.893 39.718 101.939 40.72 101.92C40.94 101.92 41.15 101.92 41.37 101.92C42.19 101.98 42.43 102.18 42.56 102.8C42.56 102.95 42.63 103.09 42.65 103.23C42.65 103.7 42.32 104.07 41.65 104.18C39.7097 104.482 37.7289 104.401 35.82 103.94C34.3393 103.59 32.8959 103.098 31.51 102.47H31.57Z" fill="#111827"/>
<path d="M15.5999 95.32C17.1414 95.7121 18.5328 96.5505 19.5999 97.73C20.5501 98.7255 21.3884 99.822 22.0999 101C23.4499 103.15 24.5899 105.35 26.0999 106.63C26.5768 107.039 27.1469 107.324 27.7599 107.46L25.9699 109.46C25.7581 108.677 25.477 107.914 25.1299 107.18C23.9382 104.838 22.5569 102.597 20.9999 100.48C20.3299 99.48 19.3999 98.48 18.5899 97.21C18.1488 96.5522 17.8115 95.8304 17.5899 95.07C17.3216 94.1921 17.3497 93.2503 17.6699 92.39L17.9999 91.56L18.8099 91.69C19.9403 91.8964 21.0039 92.3733 21.9099 93.08C23.0805 93.9961 24.162 95.0206 25.1399 96.14C26.1399 97.22 27.0199 98.3 27.9299 99.36C29.0643 100.713 30.2728 102.001 31.5499 103.22C32.6636 104.387 34.0328 105.281 35.5499 105.83C36.3899 106 36.4799 106.66 35.3499 107.19C34.5778 107.466 33.7387 107.494 32.9499 107.27C31.9051 106.998 30.939 106.485 30.1299 105.77C27.9681 103.719 25.9625 101.51 24.1299 99.16C23.2549 98.1071 22.32 97.1055 21.3299 96.16C20.5615 95.3465 19.5923 94.7498 18.5199 94.43L20.2899 93.35C20.1471 93.7166 20.1471 94.1234 20.2899 94.49C20.5076 95.0884 20.8071 95.6537 21.1799 96.17C21.7399 97.01 22.4999 97.86 23.1799 98.89C23.8599 99.92 24.4899 100.7 25.1799 101.64C26.6756 103.547 27.8572 105.68 28.6799 107.96L28.8899 108.68L29.4899 110.78L27.3199 110.39C25.8744 110.073 24.5615 109.319 23.5599 108.23C22.6873 107.288 21.9132 106.259 21.2499 105.16C19.9499 103.16 18.8399 101.03 17.3099 99.6C16.628 98.9399 15.7822 98.4738 14.8599 98.25L16.1299 97.4C16.0866 98.0996 16.2538 98.7962 16.6099 99.4C17.0046 100.203 17.4697 100.969 17.9999 101.69C19.2299 103.37 20.6499 104.98 22.0799 106.58C22.7999 107.38 23.5299 108.18 24.2499 109.02C24.5999 109.44 24.9599 109.87 25.3099 110.36C25.5138 110.643 25.6849 110.948 25.8199 111.27C25.9569 111.617 25.9569 112.003 25.8199 112.35C25.6957 112.618 25.4889 112.838 25.2299 112.98C25.061 113.042 24.887 113.089 24.7099 113.12L25.3699 112.76C25.1944 112.968 24.9927 113.153 24.7699 113.31C24.5276 113.478 24.2509 113.591 23.9599 113.64C23.3087 113.736 22.6436 113.624 22.0599 113.32C21.5979 113.093 21.1591 112.822 20.7499 112.51C20 111.941 19.2885 111.323 18.6199 110.66C17.3099 109.38 16.1099 108.05 14.9299 106.72L13.3499 105C12.6938 104.286 12.0795 103.535 11.5099 102.75C11.2646 102.397 11.1546 101.967 11.1999 101.54C11.1962 101.491 11.1817 101.443 11.1575 101.4C11.1333 101.356 11.1 101.319 11.0599 101.29C10.9604 101.25 10.8562 101.223 10.7499 101.21C10.5599 101.21 10.4099 101.13 10.4599 100.85C10.4819 100.75 10.5256 100.656 10.5878 100.575C10.65 100.494 10.7292 100.427 10.8199 100.38C11.0799 100.229 11.3805 100.163 11.6799 100.19C12.7137 100.369 13.6632 100.873 14.3899 101.63C16.3899 103.46 18.0499 105.44 19.8199 107.3C20.6466 108.197 21.5283 109.042 22.4599 109.83C22.793 110.107 23.1591 110.343 23.5499 110.53H23.5999C23.6079 110.613 23.6079 110.697 23.5999 110.78C23.584 110.899 23.584 111.021 23.5999 111.14V111.31C23.5946 111.319 23.5919 111.329 23.5919 111.34C23.5919 111.351 23.5946 111.361 23.5999 111.37C23.6899 111.7 23.5999 111.21 23.1399 110.98L24.5799 111.23C24.5548 111.335 24.5548 111.445 24.5799 111.55C24.5971 111.606 24.6206 111.659 24.6499 111.71V111.79C24.6499 111.79 24.6499 111.84 24.6999 111.86C24.6516 111.842 24.5982 111.842 24.5499 111.86H24.2499C24.1172 111.871 23.988 111.908 23.8699 111.97C23.7875 112.011 23.7001 112.041 23.6099 112.06L23.2999 112.16L22.9999 112.29L22.8599 112.36C22.7677 112.205 22.6675 112.055 22.5599 111.91C22.2399 111.49 21.8299 111.01 21.4199 110.54C19.8399 108.75 18.1199 106.92 16.5299 104.91C15.687 103.872 14.9184 102.776 14.2299 101.63C13.8329 100.997 13.4981 100.327 13.2299 99.63C12.8769 98.6949 12.7972 97.6787 12.9999 96.7L13.4299 94.7L15.2999 95.19L15.5999 95.27V95.32Z" fill="#111827"/>
<path d="M32.5499 46.08C32.5613 46.8071 32.6484 47.531 32.8099 48.24C33.0027 48.9339 33.2709 49.6046 33.6099 50.24C34.2828 51.5654 35.2552 52.7158 36.4499 53.6C36.8914 53.9205 37.356 54.208 37.8399 54.46C38.3299 54.68 38.8399 54.9 39.3399 55.09C41.1661 55.7737 43.1593 55.8744 45.0451 55.3783C46.9309 54.8822 48.6165 53.8138 49.8699 52.32C51.0123 50.9695 51.7963 49.3532 52.1499 47.62C52.5574 45.4261 52.3639 43.1629 51.5899 41.07C51.3699 40.43 51.8499 40.23 52.5899 40.6C53.1144 40.9211 53.5577 41.3589 53.8855 41.8792C54.2133 42.3995 54.4167 42.9883 54.4799 43.6C54.8195 46.3272 54.2689 49.0912 52.9099 51.48C52.2426 52.6656 51.3806 53.7304 50.3599 54.63C49.3445 55.5454 48.1724 56.2703 46.8999 56.77C45.3583 57.3389 43.7227 57.6104 42.0799 57.57C40.4376 57.509 38.8248 57.1143 37.3399 56.41C35.7375 55.6176 34.3148 54.5046 33.1599 53.14C32.0452 51.7462 31.2498 50.1247 30.8299 48.39C30.3332 46.2717 30.4476 44.0559 31.1599 42C31.7114 40.4713 32.5587 39.0663 33.6534 37.8652C34.7481 36.6641 36.0688 35.6905 37.5399 35C39.7983 33.8451 42.372 33.4589 44.8699 33.9C45.4183 34.0013 45.9594 34.1382 46.4899 34.31C47.2003 34.5391 47.8569 34.9099 48.4199 35.4C48.5662 35.5246 48.6858 35.6773 48.7717 35.8491C48.8576 36.0209 48.908 36.2083 48.9199 36.4C48.9396 36.5494 48.9396 36.7007 48.9199 36.85C48.8099 37.29 47.9799 37.11 46.8199 36.57C45.043 35.8232 43.0902 35.5977 41.1899 35.92C39.2669 36.2419 37.4706 37.0899 35.9999 38.37C35.453 38.8652 34.9541 39.411 34.5099 40C34.0857 40.5929 33.7206 41.2259 33.4199 41.89C32.8042 43.2116 32.5227 44.6641 32.5999 46.12L32.5499 46.08Z" fill="#111827"/>
<path d="M92.6299 43.72C94.9434 43.5072 97.1729 42.7468 99.1343 41.5018C101.096 40.2568 102.733 38.5629 103.91 36.56C104.785 35.088 105.426 33.4889 105.81 31.82C106.553 28.8804 106.407 25.7865 105.39 22.93C104.31 20.0645 102.376 17.6 99.8499 15.87C97.5874 14.303 94.9738 13.3173 92.2399 13C88.7745 12.6478 85.2812 13.3041 82.1799 14.89C81.1799 15.37 80.9799 14.83 81.5399 13.83C82.0328 13.0761 82.6716 12.4284 83.4187 11.9252C84.1658 11.422 85.006 11.0734 85.8899 10.9C89.8792 10.0107 94.0488 10.4316 97.7799 12.1C101.546 13.7044 104.642 16.5629 106.54 20.19C107.64 22.3873 108.282 24.7855 108.427 27.2387C108.571 29.6919 108.215 32.1488 107.38 34.46C106.481 36.9905 105.015 39.2819 103.095 41.159C101.175 43.0361 98.8503 44.4491 96.2999 45.29C95.9104 45.4244 95.513 45.5346 95.1099 45.62C94.716 45.7255 94.315 45.8024 93.9099 45.85L91.4899 46.14C90.6799 46.14 89.8699 46.14 89.0599 46.14C88.6526 46.1301 88.2473 46.0799 87.8499 45.99L86.6499 45.79C84.2283 45.2885 81.9452 44.2647 79.9599 42.79C77.9677 41.3535 76.3041 39.5093 75.0799 37.38C74.5938 36.5693 74.1757 35.7198 73.8299 34.84C73.5062 33.9518 73.2292 33.0472 72.9999 32.13C72.8499 31.21 72.6799 30.27 72.6099 29.33V27.91C72.59 27.4348 72.6202 26.9589 72.6999 26.49C72.7932 25.6521 72.9367 24.8206 73.1299 24C73.3973 22.9326 73.8436 21.9183 74.4499 21C74.7267 20.5378 75.1539 20.1848 75.6599 20C75.8356 19.9231 76.0205 19.8694 76.2099 19.84C76.7599 19.84 76.4799 21.08 75.7699 22.97C74.7575 25.8633 74.591 28.9854 75.2899 31.97C75.9953 34.9682 77.5796 37.6877 79.8399 39.78C80.678 40.5615 81.5964 41.252 82.5799 41.84L84.1199 42.6C84.6472 42.8273 85.1882 43.0211 85.7399 43.18L86.5599 43.45L87.4199 43.59C87.9851 43.7034 88.5559 43.7868 89.1299 43.84H90.8799C91.1689 43.8748 91.461 43.8748 91.7499 43.84L92.6199 43.73L92.6299 43.72Z" fill="#111827"/>
<path d="M92.8199 29.3C91.4299 29.07 89.6699 29.51 87.8199 29.65C87.0693 29.7348 86.3101 29.701 85.5699 29.55C85.3831 29.4972 85.1995 29.4338 85.0199 29.36C84.824 29.2744 84.6365 29.1706 84.4599 29.05C84.0761 28.7709 83.7782 28.3898 83.5999 27.95C83.3611 27.1873 83.4182 26.3625 83.7599 25.64C84.2865 24.4984 85.0421 23.4773 85.9799 22.64C86.7578 21.8965 87.6165 21.2425 88.5399 20.69C89.1624 20.3239 89.8367 20.0542 90.5399 19.89C91.2877 19.7015 92.0773 19.772 92.7799 20.09C93.2299 20.31 92.9399 20.63 92.5199 20.91C92.0952 21.2445 91.619 21.508 91.1099 21.69C88.9431 22.4189 87.0653 23.8202 85.7499 25.69C85.5823 25.9025 85.4595 26.1467 85.3891 26.408C85.3186 26.6692 85.3019 26.9421 85.3399 27.21C85.3761 27.2889 85.4288 27.3591 85.4943 27.416C85.5598 27.4729 85.6367 27.5152 85.7199 27.54C86.0101 27.6431 86.3128 27.707 86.6199 27.73C88.1399 27.86 89.9299 27.36 91.8399 27.3C93.1146 27.1929 94.3827 27.5715 95.3899 28.36C95.7553 28.675 96.0721 29.0423 96.3299 29.45C96.5936 29.9228 96.7216 30.4591 96.6999 31C96.6652 31.5417 96.4624 32.059 96.1199 32.48C95.8357 32.859 95.499 33.1957 95.1199 33.48C94.0198 34.252 92.8314 34.8899 91.5799 35.38C91.3099 35.49 91.0499 35.61 90.7799 35.7C89.7799 36.02 89.3899 35.95 89.0399 35.48C88.9511 35.3767 88.8709 35.2663 88.7999 35.15C88.5899 34.76 88.9299 34.32 89.6199 34L92.6199 32.61C93.0838 32.3959 93.5317 32.1486 93.9599 31.87C94.2689 31.685 94.5348 31.4361 94.7399 31.14C94.7671 31.0893 94.7813 31.0326 94.7813 30.975C94.7813 30.9175 94.7671 30.8608 94.7399 30.81C94.6547 30.5619 94.5146 30.3363 94.3299 30.15C93.9383 29.6902 93.3816 29.4028 92.7799 29.35L92.8199 29.3Z" fill="#111827"/>
<path d="M88.1799 21.61C88.2699 21.61 88.1799 21.72 87.9099 21.87C87.7896 21.9427 87.6623 22.003 87.5299 22.05C87.4568 22.059 87.383 22.059 87.3099 22.05C87.3099 22.05 87.0499 21.88 86.9599 21.83C86.8857 21.7848 86.8266 21.7187 86.7899 21.64C86.7199 21.48 86.6299 21.34 86.5499 21.19C86.5402 21.1506 86.5402 21.1094 86.5499 21.07C86.559 21.0025 86.5539 20.9338 86.535 20.8684C86.516 20.803 86.4837 20.7422 86.4399 20.69C86.4399 20.69 86.4399 20.69 86.3799 20.69C86.3199 20.69 86.1499 20.37 86.1599 20.32C86.1695 20.1902 86.1695 20.0598 86.1599 19.93C86.1599 19.93 86.1599 19.93 86.1599 19.86C86.1599 19.79 86.2199 19.76 86.1599 19.72C86.1454 19.6677 86.1454 19.6124 86.1599 19.56C86.1599 19.56 86.1599 19.48 86.2499 19.44C86.3142 19.3875 86.3893 19.3499 86.4699 19.33C86.5389 19.3088 86.6034 19.2749 86.6599 19.23H86.7299C86.885 19.2474 87.0367 19.2879 87.1799 19.35C87.1799 19.35 87.4599 19.68 87.4999 19.71C87.5399 19.74 87.4999 19.76 87.4999 19.79C87.4999 19.82 87.7399 20.05 87.7399 20.06C87.7399 20.07 87.8299 20.16 87.7399 20.27C87.6499 20.38 87.7399 20.27 87.7399 20.27C87.7991 20.3721 87.8397 20.4838 87.8599 20.6C87.8763 20.6579 87.9035 20.7122 87.9399 20.76C87.9399 20.76 88.0299 21.03 88.1399 21.13C88.2499 21.23 88.1399 21.35 88.1399 21.38C88.1399 21.41 88.1399 21.61 88.1799 21.61Z" fill="#111827"/>
<path d="M93.9399 35.61C94.0299 35.61 93.9399 35.71 93.6599 35.87C93.5408 35.9384 93.4172 35.9985 93.2899 36.05H93.0699C92.9478 35.9858 92.8307 35.9122 92.7199 35.83C92.6429 35.7838 92.5831 35.7135 92.5499 35.63L92.3099 35.18C92.3025 35.1626 92.2987 35.1439 92.2987 35.125C92.2987 35.1061 92.3025 35.0874 92.3099 35.07C92.3196 35.0025 92.3148 34.9337 92.2959 34.8682C92.2769 34.8026 92.2442 34.7419 92.1999 34.69C92.1908 34.6847 92.1804 34.682 92.1699 34.682C92.1594 34.682 92.149 34.6847 92.1399 34.69C92.0599 34.69 91.9099 34.37 91.9199 34.32C91.9299 34.27 91.9199 34.05 91.9199 33.92C91.9199 33.79 91.9199 33.92 91.9199 33.86C91.9199 33.8 91.9799 33.75 91.9699 33.72C91.9599 33.6671 91.9599 33.6129 91.9699 33.56C91.9985 33.5132 92.032 33.4696 92.0699 33.43C92.1356 33.3797 92.2102 33.3423 92.2899 33.32C92.3499 33.32 92.4099 33.26 92.4799 33.23H92.5499C92.7059 33.2426 92.8584 33.2832 92.9999 33.35C93.0974 33.4779 93.2044 33.5982 93.3199 33.71C93.3199 33.71 93.3199 33.76 93.3199 33.79C93.3199 33.82 93.5599 34.04 93.5599 34.06C93.5599 34.08 93.6499 34.16 93.5599 34.27C93.4699 34.38 93.5599 34.27 93.5599 34.27C93.6219 34.3707 93.6628 34.483 93.6799 34.6C93.6984 34.657 93.7254 34.711 93.7599 34.76C93.7599 34.76 93.8399 35.03 93.9499 35.13C94.0599 35.23 93.9499 35.35 93.9499 35.37C93.9499 35.39 93.8999 35.6 93.9399 35.61Z" fill="#111827"/>
<path d="M45.21 46.76C43.871 46.7187 42.5312 46.8091 41.21 47.03C40.609 47.1184 39.9977 47.1083 39.4 47C39.0516 46.9226 38.7266 46.7634 38.4519 46.5357C38.1772 46.3079 37.9606 46.018 37.82 45.69C37.6258 45.0768 37.6686 44.4132 37.94 43.83C38.3643 42.9178 38.9739 42.1038 39.73 41.44C40.335 40.8455 41.006 40.3221 41.73 39.88C42.2199 39.583 42.7529 39.3637 43.31 39.23C43.9123 39.0868 44.5451 39.1466 45.11 39.4C45.47 39.58 45.22 39.85 44.88 40.09C44.5542 40.367 44.1817 40.5837 43.78 40.73C42.0638 41.3318 40.5782 42.4539 39.53 43.94C39.3977 44.1039 39.3002 44.2931 39.2434 44.496C39.1867 44.6989 39.1719 44.9112 39.2 45.12C39.2 45.29 39.62 45.47 40.2 45.52C41.41 45.62 42.84 45.22 44.36 45.18C45.3797 45.0972 46.3934 45.4006 47.2 46.03C47.4927 46.2869 47.7485 46.583 47.96 46.91C48.0553 47.0911 48.1388 47.2782 48.21 47.47C48.2699 47.6852 48.3035 47.9068 48.31 48.13C48.2884 48.3513 48.2414 48.5694 48.17 48.78C48.0752 48.9668 47.9683 49.1472 47.85 49.32C47.71 49.46 47.59 49.62 47.45 49.75L47.02 50.1C46.1366 50.7138 45.1873 51.227 44.19 51.63C43.98 51.72 43.77 51.81 43.55 51.88C42.73 52.14 42.45 52.08 42.16 51.68C42.0878 51.5966 42.0241 51.5061 41.97 51.41C41.8 51.09 42.06 50.72 42.61 50.46L45 49.3C45.3652 49.1293 45.7193 48.9356 46.06 48.72C46.34 48.52 46.63 48.28 46.66 48.15C46.69 48.02 46.66 48.08 46.72 48.05C46.78 48.02 46.72 47.99 46.72 47.92C46.6829 47.8484 46.6495 47.775 46.62 47.7C46.5411 47.6077 46.4677 47.5108 46.4 47.41C46.2501 47.2342 46.0669 47.0897 45.861 46.985C45.655 46.8803 45.4304 46.8174 45.2 46.8L45.21 46.76Z" fill="#111827"/>
<path d="M41.54 40.58C41.62 40.58 41.54 40.67 41.31 40.8C41.2141 40.8777 41.1102 40.9447 41 41H40.82C40.7197 40.9497 40.6229 40.8929 40.53 40.83C40.4682 40.792 40.4195 40.7362 40.39 40.67L40.2 40.31C40.1945 40.2803 40.1945 40.2498 40.2 40.22C40.2092 40.1672 40.2068 40.113 40.1929 40.0612C40.1791 40.0094 40.1542 39.9612 40.12 39.92C40.12 39.92 39.93 39.67 39.94 39.63C39.9497 39.5236 39.9497 39.4165 39.94 39.31C39.94 39.31 39.94 39.31 39.94 39.26C39.94 39.21 39.94 39.18 39.94 39.15C39.9448 39.0952 39.9657 39.043 40 39C40.0202 38.962 40.0474 38.9281 40.08 38.9C40.1332 38.8581 40.1945 38.8275 40.26 38.81C40.317 38.7915 40.3709 38.7645 40.42 38.73H40.48C40.6072 38.7409 40.7319 38.7713 40.85 38.82C40.85 38.82 41.08 39.08 41.11 39.1C41.14 39.12 41.11 39.1 41.11 39.17L41.31 39.38C41.31 39.43 41.38 39.47 41.31 39.55C41.24 39.63 41.31 39.55 41.31 39.55C41.3562 39.6302 41.3867 39.7184 41.4 39.81C41.4139 39.8528 41.4341 39.8932 41.46 39.93C41.46 39.93 41.53 40.15 41.62 40.23C41.71 40.31 41.62 40.4 41.62 40.42C41.62 40.44 41.51 40.58 41.54 40.58Z" fill="#111827"/>
<path d="M46.1299 51.74C46.1999 51.74 46.1299 51.82 45.8999 51.95C45.8009 52.0084 45.6972 52.0586 45.5899 52.1H45.3999C45.3032 52.0492 45.2096 51.9924 45.1199 51.93C45.0582 51.892 45.0094 51.8362 44.9799 51.77L44.7899 51.42C44.7793 51.3875 44.7793 51.3525 44.7899 51.32C44.7985 51.2672 44.7958 51.2132 44.782 51.1615C44.7682 51.1098 44.7436 51.0616 44.7099 51.02C44.7099 51.02 44.7099 51.02 44.6599 51.02C44.6099 51.02 44.4699 50.77 44.4799 50.72C44.4899 50.67 44.4799 50.51 44.4799 50.41C44.4799 50.31 44.4799 50.41 44.4799 50.35C44.4799 50.29 44.4799 50.27 44.4799 50.24C44.4697 50.1973 44.4697 50.1527 44.4799 50.11C44.4799 50.11 44.4799 50.05 44.5599 50.01C44.6144 49.9701 44.6753 49.9396 44.7399 49.92C44.797 49.9015 44.8509 49.8745 44.8999 49.84H44.9599C45.0867 49.8534 45.2112 49.8836 45.3299 49.93C45.4104 50.0321 45.4972 50.129 45.5899 50.22C45.5899 50.22 45.5899 50.22 45.5899 50.28C45.5899 50.34 45.7799 50.48 45.7799 50.49C45.7799 50.5 45.8599 50.58 45.7799 50.66C45.6999 50.74 45.7799 50.66 45.7799 50.66C45.8218 50.7421 45.8521 50.8296 45.8699 50.92C45.8857 50.9651 45.9058 51.0087 45.9299 51.05C45.9899 51.15 45.9999 51.27 46.0899 51.35C46.1799 51.43 46.0899 51.53 46.0899 51.54C46.0899 51.55 46.0999 51.73 46.1299 51.74Z" fill="#111827"/>
</svg>
