<svg width="128" height="128" viewBox="0 0 128 128" fill="none" xmlns="http://www.w3.org/2000/svg">
<path d="M24.14 82.66C24.139 82.6933 24.1358 82.7263 24.1306 82.759C24.1053 83.2669 24.0917 83.5769 24.0849 83.7577C24.109 83.6435 24.064 84.3154 24.0849 83.7577C24.0815 83.7739 24.0766 83.8061 24.07 83.86H23.22C22.5871 83.8995 21.9584 83.9897 21.34 84.13C20.03 84.4 18.67 84.84 17.18 85.2C16.58 85.33 15.94 85.59 15.06 85.79C14.5619 85.9044 14.0503 85.9481 13.54 85.92C12.8389 85.8808 12.1706 85.61 11.64 85.15C11.52 85.03 11.39 84.9 11.28 84.77C11.1333 84.5675 11.0093 84.3495 10.91 84.12C10.8028 83.8293 10.7585 83.5191 10.78 83.21C10.7984 82.928 10.8732 82.6525 11 82.4C11.3111 81.8425 11.7672 81.3794 12.32 81.06C13.0198 80.6641 13.7525 80.3295 14.51 80.06L16.33 79.34C16.6154 79.2496 16.8711 79.0838 17.07 78.86C17.1098 78.8065 17.1313 78.7416 17.1313 78.675C17.1313 78.6083 17.1098 78.5435 17.07 78.49C16.9859 78.4206 16.8789 78.385 16.77 78.39C16.2425 78.4563 15.721 78.5633 15.21 78.71L14.64 78.82C14.1342 78.9032 13.6226 78.9467 13.11 78.95C12.4995 78.962 11.8932 78.8462 11.33 78.61C10.6798 78.3247 10.1518 77.818 9.84001 77.18C9.63184 76.7842 9.55813 76.3314 9.63001 75.89C9.71727 75.4671 9.92983 75.0803 10.24 74.78C10.6703 74.3524 11.1798 74.0127 11.74 73.78C12.6506 73.4444 13.587 73.1835 14.54 73L19.39 72L20 71.8L20.34 71.7C20.5236 71.6363 20.701 71.556 20.87 71.46C21.03 71.38 21.2 71.19 21.09 71C21.0582 70.9092 21.0081 70.8259 20.9427 70.7554C20.8773 70.6849 20.7981 70.6286 20.71 70.59C20.4882 70.4803 20.2469 70.4157 20 70.4C19.5286 70.3479 19.0542 70.3278 18.58 70.34C17.5564 70.3706 16.535 70.4541 15.52 70.59C13.47 70.7367 11.4321 71.0207 9.42001 71.44C8.18001 71.65 8.17001 71.25 9.09001 70.44C10.6697 69.2434 12.5712 68.5469 14.55 68.44C15.55 68.35 16.68 68.2 17.83 68.16C18.4162 68.1252 19.0039 68.1252 19.59 68.16H20.05H20.31C20.4413 68.1702 20.5717 68.1903 20.7 68.22C21.1961 68.3222 21.6791 68.4799 22.14 68.69C22.5394 68.8448 22.8978 69.0895 23.1874 69.4051C23.477 69.7207 23.69 70.0988 23.81 70.51L23.95 71.11C23.95 71.31 23.95 71.52 23.88 71.72C23.7663 72.0958 23.564 72.4387 23.29 72.72C22.5366 73.3223 21.6742 73.7739 20.75 74.05C20.2 74.23 19.66 74.38 19.12 74.52C16.99 75 14.84 75.34 13.06 75.95C12.7807 76.0341 12.5104 76.1452 12.2529 76.2816C12.2559 76.2846 12.2589 76.2875 12.2619 76.2903C12.3241 76.3491 12.3986 76.3934 12.48 76.42C12.832 76.5309 13.2023 76.5717 13.57 76.54H13.98C14.1547 76.5227 14.3282 76.496 14.5 76.46C15.0074 76.3319 15.508 76.1783 16 76C17.11 75.69 18.27 75.32 19.22 75.11C19.9322 74.9476 20.6596 74.8604 21.39 74.85C21.8687 74.8455 22.3459 74.9026 22.81 75.02C23.0951 75.0905 23.3612 75.2229 23.5893 75.4078C23.8174 75.5928 24.002 75.8257 24.13 76.09C24.2665 76.4045 24.3149 76.7501 24.27 77.09C24.2221 77.3578 24.12 77.613 23.97 77.84C23.2211 78.9065 22.1937 79.7471 21 80.27C20.07 80.71 19 81.16 17.87 81.6L16.19 82.24L15.14 82.66C14.6984 82.8254 14.2744 83.034 13.8743 83.2823C14.2198 83.2954 14.5657 83.2373 14.89 83.11L15.89 82.81L17 82.48C18.37 82.13 19.79 81.67 21.31 81.4C22.2969 81.2017 23.3056 81.1345 24.31 81.2C24.7481 81.2639 25.1525 81.4715 25.46 81.79C25.7265 82.044 25.9376 82.3504 26.08 82.69C26.2338 83.0777 26.2686 83.5024 26.18 83.91C26.0861 84.2831 25.9005 84.6268 25.64 84.91C24.8349 85.6461 23.8414 86.1445 22.77 86.35C22.3 86.49 21.83 86.56 21.37 86.65C20.962 86.7133 20.558 86.8002 20.16 86.91C18.9647 87.2312 17.8321 87.7518 16.81 88.45C16.3546 88.7545 15.9666 89.1493 15.67 89.61C15.5613 89.8069 15.4837 90.0194 15.44 90.24C15.434 90.2795 15.4308 90.3193 15.4306 90.3592C15.4638 90.3585 15.4971 90.3554 15.53 90.35C15.7988 90.3286 16.0641 90.2749 16.32 90.19C16.9312 90.0075 17.5292 89.7837 18.11 89.52C19.34 89 20.48 88.37 21.88 87.86C22.9044 87.5357 23.946 87.2686 25 87.06C25.5677 86.9479 26.1424 86.8744 26.72 86.84C27.0553 86.8298 27.3906 86.8566 27.72 86.92C28.2213 87.0009 28.678 87.2558 29.01 87.64C29.1329 87.793 29.2464 87.9533 29.35 88.12C29.4471 88.3036 29.5307 88.4941 29.6 88.69C29.75 89.1719 29.75 89.6881 29.6 90.17C29.2923 90.8892 28.7634 91.4917 28.09 91.89C27.1374 92.4685 26.1331 92.9572 25.09 93.35L22.62 94.35C19.62 95.66 19.07 96.01 18.01 96.02C17.77 96.02 17.52 96.1 17.31 96.09C17.1 96.08 16.87 95.69 17.18 94.98C17.6959 93.9935 18.4791 93.1722 19.44 92.61C21.1199 91.6508 22.864 90.8088 24.66 90.09C25.3707 89.8097 26.0427 89.44 26.66 88.99C26.72 88.99 26.71 88.93 26.74 88.9C26.83 88.9788 26.9271 89.0491 27.03 89.11C27.0421 89.1202 27.0544 89.1299 27.0667 89.1392C27.308 89.3218 27.5718 89.339 27.41 89.32C27.3044 89.3256 27.2001 89.3458 27.1 89.38C27.1 89.38 26.89 89.38 26.8 89.47C26.7294 89.4947 26.6622 89.5283 26.6 89.57C26.5881 89.5639 26.5775 89.5554 26.5689 89.5451C26.5603 89.5348 26.5539 89.5228 26.55 89.51C26.7537 89.3638 26.9243 89.2414 27.0667 89.1392C27.0544 89.1299 27.0421 89.1202 27.03 89.11C26.9271 89.0491 26.83 88.9788 26.74 88.9C26.71 88.93 26.72 88.99 26.66 88.99C26.0427 89.44 25.3707 89.8097 24.66 90.09C22.864 90.8088 21.1199 91.6508 19.44 92.61C18.4791 93.1722 17.6959 93.9935 17.18 94.98C16.87 95.69 17.1 96.08 17.31 96.09C17.52 96.1 17.77 96.02 18.01 96.02C19.07 96.01 19.62 95.66 22.62 94.35L25.09 93.35C26.1331 92.9572 27.1374 92.4685 28.09 91.89C28.7634 91.4917 29.2923 90.8892 29.6 90.17C29.75 89.6881 29.75 89.1719 29.6 88.69C29.5307 88.4941 29.4471 88.3036 29.35 88.12C29.2464 87.9533 29.1329 87.793 29.01 87.64C28.678 87.2558 28.2213 87.0009 27.72 86.92C27.3906 86.8566 27.0553 86.8298 26.72 86.84C26.1424 86.8744 25.5677 86.9479 25 87.06C23.946 87.2686 22.9044 87.5357 21.88 87.86C20.48 88.37 19.34 89 18.11 89.52C17.5292 89.7837 16.9312 90.0075 16.32 90.19C16.0641 90.2749 15.7988 90.3286 15.53 90.35C15.4971 90.3554 15.4638 90.3585 15.4306 90.3592C15.4303 90.4029 15.4334 90.4466 15.44 90.49H15.36C15.23 90.55 15.22 90.55 15.18 90.59C15.14 90.63 15.18 90.59 15.24 90.49C15.2655 90.4459 15.2857 90.3989 15.3 90.35C15.3432 90.3571 15.3869 90.3601 15.4306 90.3592C15.4308 90.3193 15.434 90.2795 15.44 90.24C15.4837 90.0194 15.5613 89.8069 15.67 89.61C15.9666 89.1493 16.3546 88.7545 16.81 88.45C17.8321 87.7518 18.9647 87.2312 20.16 86.91C20.558 86.8002 20.962 86.7133 21.37 86.65C21.83 86.56 22.3 86.49 22.77 86.35C23.8414 86.1445 24.8349 85.6461 25.64 84.91C25.9005 84.6268 26.0861 84.2831 26.18 83.91C26.2686 83.5024 26.2338 83.0777 26.08 82.69C25.9376 82.3504 25.7265 82.044 25.46 81.79C25.1525 81.4715 24.7481 81.2639 24.31 81.2C23.3056 81.1345 22.2969 81.2017 21.31 81.4C19.79 81.67 18.37 82.13 17 82.48L15.89 82.81L14.89 83.11C14.5657 83.2373 14.2198 83.2954 13.8743 83.2823C13.7575 83.3548 13.6426 83.4308 13.53 83.51C13.53 83.51 13.44 83.57 13.44 83.58C13.44 83.59 13.44 83.65 13.28 83.51C13.2083 83.4637 13.1311 83.4267 13.05 83.4H12.95C13.59 83 13.37 83.23 13.5 83.24C13.624 83.2635 13.7491 83.2776 13.8743 83.2823C14.2744 83.034 14.6984 82.8254 15.14 82.66L16.19 82.24L17.87 81.6C19 81.16 20.07 80.71 21 80.27C22.1937 79.7471 23.2211 78.9065 23.97 77.84C24.12 77.613 24.2221 77.3578 24.27 77.09C24.3149 76.7501 24.2665 76.4045 24.13 76.09C24.002 75.8257 23.8174 75.5928 23.5893 75.4078C23.3612 75.2229 23.0951 75.0905 22.81 75.02C22.3459 74.9026 21.8687 74.8455 21.39 74.85C20.6596 74.8604 19.9322 74.9476 19.22 75.11C18.27 75.32 17.11 75.69 16 76C15.508 76.1783 15.0074 76.3319 14.5 76.46C14.3282 76.496 14.1547 76.5227 13.98 76.54H13.57C13.2023 76.5717 12.832 76.5309 12.48 76.42C12.3986 76.3934 12.3241 76.3491 12.2619 76.2903C12.2589 76.2875 12.2559 76.2846 12.2529 76.2816C12.1878 76.3161 12.1234 76.3523 12.06 76.39H12.01C11.9344 76.328 11.8502 76.2775 11.76 76.24L11.64 76.18H11.74C11.84 76.18 12.17 76 12.12 76.08C12.1497 76.1558 12.195 76.2245 12.2529 76.2816C12.5104 76.1452 12.7807 76.0341 13.06 75.95C14.84 75.34 16.99 75 19.12 74.52C19.66 74.38 20.2 74.23 20.75 74.05C21.6742 73.7739 22.5366 73.3223 23.29 72.72C23.564 72.4387 23.7663 72.0958 23.88 71.72C23.95 71.52 23.95 71.31 23.95 71.11L23.81 70.51C23.69 70.0988 23.477 69.7207 23.1874 69.4051C22.8978 69.0895 22.5394 68.8448 22.14 68.69C21.6791 68.4799 21.1961 68.3222 20.7 68.22C20.5717 68.1903 20.4413 68.1702 20.31 68.16H20.05H19.59C19.0039 68.1252 18.4162 68.1252 17.83 68.16C16.68 68.2 15.55 68.35 14.55 68.44C12.5712 68.5469 10.6697 69.2434 9.09001 70.44C8.17001 71.25 8.18001 71.65 9.42001 71.44C11.4321 71.0207 13.47 70.7367 15.52 70.59C16.535 70.4541 17.5564 70.3706 18.58 70.34C19.0542 70.3278 19.5286 70.3479 20 70.4C20.2469 70.4157 20.4882 70.4803 20.71 70.59C20.7981 70.6286 20.8773 70.6849 20.9427 70.7554C21.0081 70.8259 21.0582 70.9092 21.09 71C21.2 71.19 21.03 71.38 20.87 71.46C20.701 71.556 20.5236 71.6363 20.34 71.7L20 71.8L19.39 72L14.54 73C13.587 73.1835 12.6506 73.4444 11.74 73.78C11.1798 74.0127 10.6703 74.3524 10.24 74.78C9.92983 75.0803 9.71727 75.4671 9.63001 75.89C9.55813 76.3314 9.63184 76.7842 9.84001 77.18C10.1518 77.818 10.6798 78.3247 11.33 78.61C11.8932 78.8462 12.4995 78.962 13.11 78.95C13.6226 78.9467 14.1342 78.9032 14.64 78.82L15.21 78.71C15.721 78.5633 16.2425 78.4563 16.77 78.39C16.8789 78.385 16.9859 78.4206 17.07 78.49C17.1098 78.5435 17.1313 78.6083 17.1313 78.675C17.1313 78.7416 17.1098 78.8065 17.07 78.86C16.8711 79.0838 16.6154 79.2496 16.33 79.34L14.51 80.06C13.7525 80.3295 13.0198 80.6641 12.32 81.06C11.7672 81.3794 11.3111 81.8425 11 82.4C10.8732 82.6525 10.7984 82.928 10.78 83.21C10.7585 83.5191 10.8028 83.8293 10.91 84.12C11.0093 84.3495 11.1333 84.5675 11.28 84.77C11.39 84.9 11.52 85.03 11.64 85.15C12.1706 85.61 12.8389 85.8808 13.54 85.92C14.0503 85.9481 14.5619 85.9044 15.06 85.79C15.94 85.59 16.58 85.33 17.18 85.2C18.67 84.84 20.03 84.4 21.34 84.13C21.9584 83.9897 22.5871 83.8995 23.22 83.86H24.07C24.0766 83.8061 24.0815 83.7739 24.0849 83.7577C24.0917 83.5769 24.1053 83.2669 24.1306 82.759C24.1335 82.6988 24.1367 82.6359 24.14 82.57V82.66Z" fill="#111827"/>
<path d="M115.1 26.47C115.172 26.4197 115.234 26.355 115.28 26.28C115.292 26.2624 115.299 26.2421 115.302 26.221C115.304 26.1998 115.301 26.1785 115.293 26.1587C115.285 26.139 115.273 26.1215 115.256 26.1078C115.24 26.094 115.221 26.0845 115.2 26.08C115.11 26.0453 115.01 26.0453 114.92 26.08L114.79 26.13L114.45 26.33C114.197 26.4969 113.954 26.6772 113.72 26.87C112.718 27.7163 111.806 28.6648 111 29.7C110.12 30.9134 109.14 32.0507 108.07 33.1C107.583 33.5762 107.018 33.9652 106.4 34.25C106.172 34.3323 105.938 34.3958 105.7 34.44C105.395 34.4891 105.085 34.4891 104.78 34.44C104.464 34.3366 104.17 34.1774 103.91 33.97C103.598 33.6994 103.357 33.3564 103.209 32.971C103.061 32.5857 103.01 32.1698 103.06 31.76C103.107 31.3648 103.208 30.9779 103.36 30.61C103.634 30.0388 103.97 29.499 104.36 29C105.076 28.1057 105.848 27.2574 106.67 26.46C107.06 26.06 107.42 25.74 107.75 25.37C108.08 25 108.46 24.58 108.75 24.18C109.423 23.4159 110.035 22.6001 110.58 21.74C110.823 21.3643 111.021 20.9616 111.17 20.54C111.212 20.4 111.239 20.2558 111.25 20.11C111.25 20 111.25 20.02 111.25 20H111.66C111.66 20 111.66 20 111.66 20.08C111.65 20.1328 111.65 20.1871 111.66 20.24H111.59H111.45C111.182 20.3575 110.93 20.5088 110.7 20.69C110.151 21.1153 109.636 21.5834 109.16 22.09C108.16 23.09 107.16 24.24 106.16 25.36L104.55 27.22C103.928 27.9453 103.26 28.63 102.55 29.27C102.148 29.6647 101.672 29.9771 101.15 30.19C100.92 30.2768 100.676 30.3241 100.43 30.33C100.17 30.2928 99.9148 30.2257 99.67 30.13C99.1751 29.9479 98.763 29.5926 98.51 29.13C98.2887 28.656 98.2155 28.1262 98.3 27.61C98.4205 26.8773 98.6568 26.1684 99 25.51C99.29 24.92 99.52 24.51 99.81 24.03C100.36 23.11 100.95 22.24 101.53 21.39C102.11 20.54 102.69 19.69 103.22 18.86C103.47 18.44 103.74 18.03 103.96 17.63C104.166 17.2864 104.324 16.9163 104.43 16.53C104.56 16.23 104.48 16.05 104.65 15.91C104.82 15.77 105.27 15.78 105.65 16.48C105.956 17.368 105.977 18.3294 105.71 19.23C105.408 20.3351 104.925 21.3826 104.28 22.33L102.55 24.94L101.76 26.2C101.46 26.72 101.45 26.75 101.45 26.74C101.45 26.73 101.45 26.74 101.45 26.74C101.45 26.74 101.45 26.74 101.59 26.62C102.97 25.19 104.33 23.53 105.78 21.94C106.52 21.1114 107.305 20.3236 108.13 19.58C108.58 19.1721 109.061 18.8009 109.57 18.47C109.884 18.264 110.219 18.093 110.57 17.96C111.065 17.7608 111.606 17.7088 112.13 17.81C112.332 17.8735 112.529 17.9504 112.72 18.04L112.91 18.14L113.06 18.32C113.46 18.8133 113.666 19.4355 113.64 20.07C113.622 20.525 113.531 20.9741 113.37 21.4C113.108 22.0809 112.773 22.7314 112.37 23.34C111.635 24.4618 110.826 25.5342 109.95 26.55C109.55 27.03 109.02 27.61 108.59 28.04C108.16 28.47 107.7 28.94 107.29 29.4C106.888 29.8321 106.514 30.2897 106.17 30.77C105.908 31.1134 105.715 31.5038 105.6 31.92C105.6 31.97 105.6 31.97 105.6 31.99C105.6 32.01 105.75 31.84 105.6 31.99C105.6 31.99 105.48 32.16 105.49 32.14C105.49 32.14 105.49 32.24 105.49 32.14C105.5 32.057 105.5 31.973 105.49 31.89C105.97 31.6617 106.401 31.3425 106.76 30.95C107.711 29.9297 108.606 28.8581 109.44 27.74C110.389 26.5478 111.485 25.4795 112.7 24.56C113.019 24.3187 113.353 24.0983 113.7 23.9C114.168 23.6278 114.673 23.4256 115.2 23.3C115.687 23.1691 116.196 23.1398 116.695 23.2137C117.194 23.2877 117.672 23.4634 118.1 23.73C118.342 23.8968 118.539 24.1192 118.677 24.3785C118.814 24.6379 118.887 24.9265 118.89 25.22C118.881 25.823 118.704 26.4116 118.38 26.92C118.209 27.2007 118.022 27.4712 117.82 27.73L117.51 28.13L117.24 28.42C116.9 28.81 116.6 29.11 116.24 29.42C114.93 30.68 113.56 31.82 112.24 32.97C111.248 33.7389 110.339 34.6104 109.53 35.57C109.372 35.7935 109.234 36.0311 109.12 36.28C109.079 36.3668 109.045 36.4572 109.02 36.55C108.96 36.61 109.15 36.55 108.83 36.55C108.74 36.55 108.72 36.55 108.65 36.55C108.58 36.55 108.54 36.61 108.56 36.55C108.604 36.51 108.636 36.4578 108.65 36.4C108.65 36.4 108.65 36.31 108.71 36.17C108.77 36.03 108.71 36.17 108.71 36.12C108.797 36.1269 108.883 36.1269 108.97 36.12C109.102 36.0899 109.232 36.0532 109.36 36.01L109.71 35.89C109.939 35.7505 110.156 35.5934 110.36 35.42L111.11 34.79L112.62 33.48C113.62 32.6 114.62 31.73 115.76 30.91C116.194 30.5792 116.649 30.2753 117.12 30C117.637 29.6631 118.209 29.4194 118.81 29.28C119.282 29.1741 119.777 29.2566 120.19 29.51C120.594 29.7941 120.87 30.2248 120.96 30.71C121.008 30.8793 121.035 31.054 121.04 31.23C121.051 31.323 121.051 31.4169 121.04 31.51C121.05 31.6431 121.05 31.7768 121.04 31.91C120.937 32.2624 120.785 32.5989 120.59 32.91C119.993 33.7997 119.324 34.6391 118.59 35.42C117.88 36.18 117.16 36.91 116.45 37.64L114.62 39.56C113.855 40.3977 113.047 41.1954 112.2 41.95C111.811 42.3162 111.347 42.5927 110.84 42.76C110.651 42.8522 110.473 42.9663 110.31 43.1C110.18 43.18 110.08 43.17 109.98 42.99C109.859 42.7098 109.824 42.4 109.88 42.1C110.086 41.0575 110.558 40.0861 111.25 39.28C112.44 37.78 113.74 36.44 115.02 35.09L116.92 33.09C117.233 32.7633 117.523 32.43 117.79 32.09C118.021 31.8237 118.225 31.5356 118.4 31.23V31.18L118.55 31.25C118.73 31.34 119.04 31.38 119.15 31.43L119.37 31.48H118.37C118.365 31.4368 118.365 31.3932 118.37 31.35C118.52 31.313 118.667 31.2662 118.81 31.21C119.27 31.13 119.49 30.76 119.38 30.95C119.354 31.0076 119.333 31.068 119.32 31.13C119.32 31.2 119.32 31.27 119.32 31.43C119.3 31.5625 119.3 31.6974 119.32 31.83C119.32 31.83 119.32 32.07 119.32 32.04C119.057 32.1312 118.806 32.252 118.57 32.4C118.25 32.59 117.89 32.85 117.57 33.1C116.16 34.1 114.76 35.42 113.3 36.71L112.47 37.43L112.01 37.81L111.75 38.01L111.61 38.12L111.39 38.26C111.117 38.4305 110.825 38.5682 110.52 38.67C110.284 38.754 110.044 38.8241 109.8 38.88C109.473 38.9603 109.137 39.0039 108.8 39.01C108.527 39.0016 108.255 38.9647 107.99 38.9C107.787 38.8363 107.593 38.749 107.41 38.64C107.199 38.5276 107.012 38.3747 106.86 38.19C106.551 37.8404 106.346 37.4106 106.27 36.95C106.256 36.8003 106.256 36.6496 106.27 36.5C106.258 36.3703 106.258 36.2397 106.27 36.11C106.316 35.7652 106.41 35.4285 106.55 35.11C106.744 34.6559 106.985 34.2236 107.27 33.82C107.533 33.4364 107.827 33.0751 108.15 32.74C108.45 32.43 108.73 32.17 109.01 31.91C110.14 30.91 111.23 30 112.29 29.07C112.82 28.61 113.29 28.14 113.83 27.67L114.55 26.97L114.89 26.61L115.15 26.32L115.1 26.47Z" fill="#111827"/>
<path d="M54.77 57.21C56 54.63 57.32 52.07 58.77 49.58C59.15 48.94 59.45 48.38 59.92 47.68C60.3918 47.0126 60.95 46.4107 61.58 45.89C62.7315 44.9346 63.9665 44.0845 65.27 43.35C67.11 42.28 68.96 41.3 70.85 40.42C74.19 38.86 77.56 37.42 80.9 36C82.56 35.27 84.21 34.52 85.82 33.72C87.425 32.9464 88.9607 32.0364 90.41 31C92.8308 28.9471 95.0386 26.6555 97 24.16C98.3 22.57 99.54 20.93 100.81 19.29C101.46 18.48 102.08 17.65 102.81 16.88C103.54 16.11 104.22 15.35 104.97 14.62C105.9 13.71 105.97 14 105.49 15.04C105.26 15.55 104.92 16.27 104.49 17.12C104.27 17.54 104.05 18 103.77 18.46C103.49 18.92 103.16 19.39 102.77 19.87C100.323 23.3696 97.6221 26.6852 94.69 29.79C93.93 30.56 93.14 31.3 92.32 32.02C91.465 32.7721 90.5409 33.4417 89.56 34.02C87.6868 35.1114 85.75 36.0898 83.76 36.95C79.09 39.05 74.25 41.18 69.64 43.47C67.1276 44.622 64.7747 46.0943 62.64 47.85C62.1676 48.2712 61.7599 48.7598 61.43 49.3L60.4 51.09C59.69 52.31 59.02 53.56 58.4 54.82C56.79 57.93 55.34 61.13 53.9 64.33C52.7905 66.715 51.8775 69.1865 51.17 71.72C50.86 72.98 50.47 74.34 51.09 74.99C51.71 75.64 52.93 75.69 54.02 75.14C55.7356 74.1867 57.2583 72.9217 58.51 71.41C59.8218 69.9338 60.9717 68.3212 61.94 66.6C62.37 65.85 62.74 65.08 63.11 64.29C63.79 62.83 64.11 61.83 64.45 61.15C64.6708 60.6446 64.9865 60.1863 65.38 59.8C65.5094 59.659 65.6498 59.5286 65.8 59.41C66.02 59.28 66.13 59.57 66.16 60.22C66.1524 61.196 65.9904 62.1646 65.68 63.09C64.4628 66.8012 62.4685 70.2103 59.83 73.09C58.4588 74.6635 56.8245 75.9865 55 77C54.4552 77.2741 53.877 77.4758 53.28 77.6C52.9514 77.6698 52.6157 77.7 52.28 77.69H51.73C51.5405 77.6473 51.3535 77.5938 51.17 77.53C50.806 77.4184 50.4667 77.2385 50.17 77C49.8314 76.7786 49.5393 76.4933 49.31 76.16C48.8666 75.5033 48.6458 74.7216 48.68 73.93C48.6938 73.0775 48.8011 72.2291 49 71.4C49.18 70.67 49.38 69.95 49.61 69.24C50.06 67.83 50.61 66.45 51.15 65.1C52.29 62.41 53.46 59.83 54.68 57.19L54.77 57.21Z" fill="#111827"/>
<path d="M99.36 56.4C101.03 53.95 102.78 51.57 104.56 49.23C105.21 48.37 105.81 47.48 106.47 46.64C107.63 45.16 108.8 43.64 110.04 42.21C111.28 40.78 112.54 39.36 113.83 37.97C114.97 36.74 116.12 35.49 117.28 34.28C118.71 32.6074 120.439 31.2168 122.38 30.18C123.03 29.88 123.08 30.27 122.8 30.89C122.391 31.7544 121.832 32.5397 121.15 33.21C118.1 36.09 115.26 39.35 112.33 42.57C110.56 44.47 109.03 46.71 107.4 48.85C105.62 51.19 103.86 53.55 102.19 55.96C101.19 57.44 100.19 58.96 99.19 60.48C97.76 62.81 96.3 65.15 95.04 67.56C94.04 69.43 93.3 71.35 92.53 73.27C92.37 73.69 92.22 74.11 92.06 74.54C91.45 76.12 91.12 76.54 90.53 76.76C90.4106 76.8164 90.2869 76.8633 90.16 76.9C89.84 76.98 89.64 76.16 89.94 74.9C90.4136 72.992 91.0596 71.131 91.87 69.34C92.69 67.53 93.63 65.75 94.62 64.01C96.1 61.43 97.62 58.89 99.3 56.38L99.36 56.4Z" fill="#111827"/>
<path d="M33.79 65.73C31.41 66.25 29.0267 66.7467 26.64 67.22C25.76 67.39 24.9 67.61 24.03 67.77C20.95 68.32 17.86 68.77 14.77 69.3C13.4 69.51 12.03 69.76 10.67 69.99C9.8 70.15 8.92 70.28 8.04 70.4C7.14737 70.4499 6.25264 70.4499 5.36 70.4C4.81 70.4 4.87 70.22 5.31 69.97C5.52 69.83 5.85 69.73 6.22 69.48L6.82 69.11C6.92 69.04 7.04 69 7.15 68.91L7.51 68.83C11.02 68.19 14.56 67.67 18.14 67.15C20.29 66.86 22.48 66.31 24.64 65.85C27.02 65.3367 29.3933 64.7967 31.76 64.23L36.13 63.14C38.33 62.57 40.55 62.03 42.74 61.43C44.44 60.97 46.08 60.43 47.8 59.98C48.18 59.88 48.55 59.77 48.95 59.7C50.41 59.43 51.11 59.7 51.33 60.34C51.3907 60.4542 51.4249 60.5807 51.43 60.71C51.43 60.87 51.25 60.94 51.05 61.12C50.7606 61.3458 50.4146 61.4877 50.05 61.53C48.66 61.85 47.14 62.33 45.61 62.75L40.94 64C38.59 64.62 36.19 65.16 33.8 65.74L33.79 65.73Z" fill="#111827"/>
<path d="M92.83 86.45C92.83 86.34 92.9 86.21 92.94 86.09C92.98 85.97 92.94 85.79 92.94 85.78C92.94 85.77 92.94 85.78 92.87 85.54C92.7627 85.3197 92.6425 85.106 92.51 84.9C92.23 84.46 91.9 84 91.51 83.56C90.82 82.65 90.07 81.77 89.3 80.9C88.53 80.03 87.94 79.48 87.3 78.75C85 76.18 82.57 73.69 80 71.27C78.87 70.17 77.75 69.09 76.59 68.11C75.1127 66.9016 73.5447 65.8084 71.9 64.84C71.4 64.5 71.49 64.33 72.12 64.16C72.606 64.023 73.1149 63.9869 73.6154 64.054C74.1158 64.1211 74.5972 64.2899 75.03 64.55C76.8465 65.6377 78.5253 66.9405 80.03 68.43L82.23 70.5C82.99 71.2 83.7 71.94 84.4 72.7C86.08 74.51 87.98 76.22 89.71 78.06C90.71 79.06 91.59 80.06 92.49 81.17C92.94 81.71 93.38 82.26 93.8 82.83C94.2647 83.4272 94.6668 84.0706 95 84.75C95.1416 85.0646 95.2165 85.405 95.22 85.75C95.1792 86.6143 94.9462 87.4586 94.5379 88.2214C94.1297 88.9843 93.5565 89.6466 92.86 90.16C92.3137 90.6006 91.716 90.9733 91.08 91.27C90.427 91.6041 89.7189 91.8176 88.99 91.9C88.6047 91.945 88.2154 91.945 87.83 91.9C87.4906 91.8172 87.1567 91.7137 86.83 91.59C86.1843 91.32 85.5678 90.9849 84.99 90.59C84.1237 90.0429 83.2952 89.4382 82.51 88.78C81.7321 88.1529 80.9877 87.4853 80.28 86.78C79.98 86.46 79.68 86.15 79.4 85.78C78.31 84.57 78.32 83.89 78.4 83.38C78.4077 83.2615 78.4278 83.1442 78.46 83.03C78.46 82.88 78.69 82.89 79 83.03C79.4565 83.1839 79.8853 83.4101 80.27 83.7L82.27 85.35C82.93 85.92 83.58 86.5 84.27 87.03C84.96 87.56 85.61 88.08 86.27 88.51C86.8508 88.9251 87.501 89.2333 88.19 89.42C88.3 89.47 88.38 89.42 88.48 89.42C88.58 89.42 88.67 89.42 88.74 89.42C88.8163 89.4097 88.8937 89.4097 88.97 89.42C89.0888 89.3946 89.2057 89.3612 89.32 89.32C89.8423 89.15 90.3425 88.9184 90.81 88.63C91.7121 88.1561 92.4197 87.3813 92.81 86.44L92.83 86.45Z" fill="#111827"/>
<path d="M77.8 93.53C78.7211 94.2418 79.7292 94.8333 80.8 95.29C81.1681 95.415 81.5461 95.5087 81.93 95.57C82.4983 95.73 83.1053 95.6804 83.64 95.43C84.3367 95.0596 85.0052 94.6385 85.64 94.17C86.1876 93.7627 86.6728 93.2776 87.08 92.73C87.5455 92.0302 87.9728 91.3059 88.36 90.56C88.49 90.33 88.82 90.42 89.11 90.76C89.2884 90.9732 89.4117 91.2269 89.4693 91.4989C89.5268 91.7709 89.5167 92.0528 89.44 92.32C89.0463 93.3358 88.4315 94.2513 87.64 95C86.9131 95.7195 86.08 96.3231 85.17 96.79C84.5555 97.1809 83.8793 97.4649 83.17 97.63C82.4771 97.7709 81.7629 97.7709 81.07 97.63C79.739 97.2962 78.4721 96.7455 77.32 96C76.62 95.57 75.96 95.1 75.32 94.62C74.32 93.89 73.42 93.08 72.49 92.31C71.77 91.71 70.99 91.18 70.27 90.55C70.1007 90.4246 69.9403 90.2876 69.79 90.14C69.24 89.57 69.22 89.24 69.66 88.71C69.76 88.59 69.86 88.46 69.97 88.35C70.1426 88.1782 70.3719 88.0754 70.6149 88.0606C70.8579 88.0459 71.098 88.1203 71.29 88.27C72.5985 89.1861 73.8446 90.1883 75.02 91.27C75.9168 92.0757 76.8583 92.8303 77.84 93.53H77.8Z" fill="#111827"/>
<path d="M69.52 99.42C70.4902 100.17 71.5358 100.817 72.64 101.35C73.0211 101.505 73.4119 101.636 73.81 101.74C74.1083 101.833 74.4177 101.887 74.73 101.9C74.8498 101.911 74.9703 101.911 75.09 101.9C75.24 101.9 75.45 101.76 75.62 101.7C76.3573 101.425 77.059 101.062 77.71 100.62C78.2656 100.225 78.7464 99.7337 79.13 99.17C79.565 98.4528 79.9237 97.692 80.2 96.9C80.28 96.69 80.68 96.66 81.07 96.97C81.3058 97.1619 81.4812 97.4178 81.5752 97.7069C81.6693 97.996 81.6779 98.3061 81.6 98.6C81.2518 99.7045 80.6046 100.691 79.73 101.45C78.934 102.184 78.0082 102.764 77 103.16L76.12 103.52L75.89 103.62L75.58 103.73C75.37 103.8 75.17 103.81 74.96 103.86C74.2346 103.918 73.5048 103.836 72.81 103.62C71.4865 103.159 70.2368 102.509 69.1 101.69C68.41 101.23 67.74 100.69 67.1 100.22C66.1 99.45 65.19 98.6 64.25 97.79C63.53 97.15 62.74 96.61 62.05 95.91C61.89 95.76 61.73 95.61 61.59 95.45C61.07 94.82 61.04 94.45 61.38 94.06C61.452 93.957 61.5323 93.86 61.62 93.77C61.93 93.51 62.36 93.58 62.78 93.9C64.07 94.83 65.31 95.96 66.61 97.05C67.61 97.86 68.55 98.67 69.61 99.38L69.52 99.42Z" fill="#111827"/>
<path d="M53.13 97.11C54.39 98.26 55.67 99.41 57.02 100.45C57.5 100.85 58.02 101.15 58.54 101.53C59.4054 102.172 60.3032 102.77 61.23 103.32C62.1386 103.837 63.1195 104.214 64.14 104.44C65.0396 104.661 65.9736 104.705 66.89 104.57C67.9635 104.374 68.9239 103.782 69.58 102.91C69.81 102.64 70.1 102.79 70.24 103.27C70.3269 103.632 70.3112 104.011 70.1946 104.364C70.078 104.717 69.8652 105.031 69.58 105.27C68.9499 105.783 68.1997 106.127 67.4 106.27C66.6631 106.418 65.9086 106.459 65.16 106.39C64.4608 106.337 63.7679 106.22 63.09 106.04C62.7482 105.958 62.4137 105.847 62.09 105.71C61.7419 105.587 61.4069 105.43 61.09 105.24C59.6384 104.461 58.2328 103.6 56.88 102.66C55.43 101.66 54.06 100.49 52.73 99.33C51.9 98.62 51.11 97.87 50.31 97.14C49.11 96.01 47.95 94.83 46.81 93.66C45.91 92.75 44.99 91.9 44.12 90.95C43.93 90.73 43.74 90.53 43.56 90.3C42.9 89.45 42.87 89.01 43.21 88.59C43.2794 88.4819 43.3599 88.3814 43.45 88.29C43.76 88.02 44.27 88.21 44.71 88.73C46.18 90.25 47.78 91.88 49.42 93.49C50.64 94.69 51.89 95.88 53.17 97.03L53.13 97.11Z" fill="#111827"/>
<path d="M27.08 92.1L31.63 90.52C32.19 90.33 32.72 90.08 33.29 89.9C35.29 89.25 37.29 88.71 39.29 88.23C40.2 88.03 41.11 87.78 42.03 87.6C42.6344 87.4608 43.2503 87.3771 43.87 87.35C44.5311 87.3561 45.1829 87.5063 45.78 87.79C46.16 87.99 45.95 88.26 45.57 88.55C45.1408 88.9066 44.6538 89.1873 44.13 89.38C42.08 89.64 39.8 90.22 37.49 90.72C36.101 91.1001 34.7354 91.5609 33.4 92.1L28.85 93.71L26.04 94.71L21.78 96.25C20.68 96.66 19.63 97.18 18.48 97.54C18.2245 97.6231 17.964 97.6899 17.7 97.74C16.7 97.92 16.26 97.74 16.08 97.22C16.0267 97.1092 15.9897 96.9913 15.97 96.87C15.9625 96.773 15.9775 96.6755 16.0139 96.5853C16.0504 96.4951 16.1072 96.4145 16.18 96.35C16.3725 96.1859 16.5926 96.0572 16.83 95.97C18.54 95.19 20.54 94.5 22.54 93.72L27.05 92.04L27.08 92.1Z" fill="#111827"/>
<path d="M25.13 83.52C24.4579 82.1272 23.8896 80.6866 23.43 79.21C23.25 78.68 23.05 78.15 22.92 77.6C22.4478 75.6373 22.2859 73.6128 22.44 71.6C22.5 70.72 22.61 69.83 22.75 68.96C22.8431 68.3944 22.9767 67.8363 23.15 67.29C23.3454 66.745 23.6329 66.2377 24 65.79C24.22 65.5 24.56 65.79 24.84 66.2C25.1597 66.6808 25.3109 67.254 25.27 67.83C24.7113 69.7605 24.4285 71.7603 24.43 73.77C24.469 75.0607 24.7016 76.3383 25.12 77.56C25.504 78.9494 25.9955 80.3068 26.59 81.62C26.96 82.44 27.37 83.24 27.81 84.02C28.4719 85.2121 29.2382 86.3432 30.1 87.4C30.775 88.1793 31.529 88.8864 32.35 89.51L32.87 89.88C33.49 90.36 33.52 90.57 33.47 91.09C33.47 91.21 33.47 91.34 33.47 91.45C33.53 91.84 32.85 92.06 32.13 91.75C31.1702 91.2817 30.2976 90.6526 29.55 89.89C28.8127 89.1588 28.1433 88.3622 27.55 87.51C26.6411 86.2393 25.8288 84.9022 25.12 83.51L25.13 83.52Z" fill="#111827"/>
<path d="M105.75 37.6C105.505 37.0388 105.218 36.4972 104.89 35.98L104.4 35.19L103.81 34.46C103.504 34.1006 103.169 33.7662 102.81 33.46L101.96 32.58L101.02 31.78C100.394 31.2243 99.7257 30.7194 99.02 30.27C98.3825 29.8812 97.7135 29.5467 97.02 29.27C96.11 28.9557 95.2298 28.5608 94.39 28.09C94.13 27.93 94.26 27.61 94.62 27.34C94.844 27.1779 95.0991 27.0639 95.3694 27.0054C95.6396 26.9469 95.919 26.945 96.19 27C96.7061 27.0893 97.2119 27.23 97.7 27.42C98.18 27.62 98.7 27.83 99.14 28.05C99.622 28.265 100.084 28.5227 100.52 28.82C100.973 29.0979 101.407 29.4052 101.82 29.74C102.31 30.16 102.82 30.55 103.35 30.93C103.88 31.31 104.35 31.79 104.82 32.23C105.29 32.67 105.82 33.31 106.23 33.87C106.64 34.43 107.07 35.04 107.4 35.68C107.6 36.07 107.82 36.46 108.01 36.85L108.52 38.07C108.986 39.3221 109.321 40.619 109.52 41.94C109.721 42.9549 109.831 43.9856 109.85 45.02C109.85 45.26 109.85 45.49 109.85 45.72C109.82 45.9049 109.77 46.086 109.7 46.26C109.625 46.3846 109.531 46.4961 109.42 46.59C109.233 46.7399 108.999 46.818 108.76 46.81C108.647 46.8196 108.533 46.8196 108.42 46.81C108.07 46.81 107.81 46.35 107.63 45.81C107.43 44.22 107.22 42.68 106.92 41.09C106.677 39.9042 106.291 38.7523 105.77 37.66L105.75 37.6Z" fill="#111827"/>
<path d="M104.83 95.89C104.69 95.89 104.69 95.71 104.83 95.36C104.897 95.2087 104.984 95.0673 105.09 94.94C105.184 94.8903 105.281 94.8468 105.38 94.81C105.43 94.81 106.02 94.92 106.23 94.93C106.42 94.9526 106.605 95.0032 106.78 95.08C107.14 95.22 107.51 95.33 107.88 95.45C107.965 95.4771 108.043 95.5214 108.11 95.58C108.35 95.7692 108.637 95.8901 108.94 95.93C108.965 95.9423 108.992 95.9488 109.02 95.9488C109.048 95.9488 109.075 95.9423 109.1 95.93C109.447 95.9211 109.791 96.0002 110.1 96.16C110.316 96.3474 110.543 96.5211 110.78 96.68C110.78 96.68 110.86 96.68 110.87 96.78C110.88 96.88 110.99 96.96 111.07 97C111.179 97.0563 111.28 97.1269 111.37 97.21C111.414 97.2863 111.451 97.3667 111.48 97.45C111.487 97.5637 111.455 97.6764 111.39 97.77C111.32 97.83 111.33 97.95 111.31 98.05V98.15C111.037 98.2929 110.743 98.394 110.44 98.45L109.92 98.38L109.31 98.32C109.25 98.32 109.2 98.32 109.15 98.23L108.3 98.07C108.15 97.99 107.97 97.99 107.86 97.79C107.86 97.79 107.81 97.79 107.77 97.79C107.496 97.6904 107.234 97.5596 106.99 97.4C106.86 97.33 106.72 97.28 106.58 97.22C106.44 97.16 106.58 97.22 106.52 97.16C106.46 97.1 106.52 97.1 106.44 97.09C106.11 96.96 105.83 96.74 105.44 96.63C105.36 96.63 105.09 96.27 105 96.24C104.91 96.21 104.89 95.88 104.83 95.89Z" fill="#111827"/>
<path d="M92.25 107.53C92.13 107.43 92.35 107.34 92.76 107.25C92.9589 107.22 93.1612 107.22 93.36 107.25C93.4636 107.3 93.5638 107.357 93.66 107.42C93.7903 107.693 93.9038 107.973 94 108.26C94.0687 108.449 94.0993 108.649 94.09 108.85C94.09 109.25 94.09 109.65 94.09 110.04C94.0857 110.131 94.0618 110.219 94.02 110.3C93.8852 110.573 93.8265 110.877 93.85 111.18C93.8378 111.203 93.8314 111.229 93.8314 111.255C93.8314 111.281 93.8378 111.307 93.85 111.33C93.9384 111.657 93.9384 112.003 93.85 112.33C93.7032 112.566 93.5696 112.809 93.45 113.06C93.45 113.06 93.45 113.13 93.37 113.15C93.29 113.17 93.2 113.29 93.18 113.37C93.1509 113.482 93.1 113.588 93.03 113.68C93.03 113.68 92.89 113.77 92.8 113.82C92.6749 113.848 92.5451 113.848 92.42 113.82C92.33 113.76 92.2 113.82 92.09 113.82H92C91.799 113.595 91.6368 113.338 91.52 113.06V112.57C91.52 112.33 91.52 112.07 91.52 112.02C91.52 111.97 91.52 111.91 91.59 111.86C91.66 111.81 91.52 111.1 91.53 111.08C91.54 111.06 91.53 110.78 91.69 110.65C91.6964 110.636 91.6996 110.62 91.6996 110.605C91.6996 110.589 91.6964 110.574 91.69 110.56C91.7017 110.305 91.7489 110.052 91.83 109.81C91.84 109.68 91.84 109.55 91.83 109.42V109.36C91.8376 109.33 91.8376 109.299 91.83 109.27C91.8652 108.968 91.8652 108.662 91.83 108.36C91.83 108.29 92.01 107.96 91.99 107.88C91.97 107.8 92.3 107.57 92.25 107.53Z" fill="#111827"/>
<path d="M31.72 35.15C31.58 35.15 31.6 34.98 31.72 34.67C31.7738 34.5285 31.8554 34.3993 31.96 34.29C32.0451 34.2423 32.1358 34.2054 32.23 34.18C32.23 34.18 32.83 34.32 33.03 34.36C33.2113 34.3932 33.3845 34.4611 33.54 34.56L34.54 35.09C34.6124 35.1316 34.6767 35.1858 34.73 35.25C34.9167 35.4695 35.1533 35.641 35.42 35.75C35.42 35.75 35.5 35.75 35.56 35.75C35.8678 35.839 36.1515 35.9962 36.39 36.21C36.54 36.43 36.71 36.62 36.88 36.83C36.88 36.83 36.94 36.83 36.94 36.93C36.94 37.03 37 37.12 37.06 37.18C37.1433 37.2503 37.2172 37.331 37.28 37.42C37.2923 37.5029 37.2923 37.5871 37.28 37.67C37.2584 37.7782 37.2022 37.8764 37.12 37.95C37.04 37.95 37.02 38.1 36.97 38.19V38.28C36.6986 38.3253 36.4215 38.3253 36.15 38.28L35.72 38.09L35.21 37.89C35.16 37.89 35.13 37.81 35.1 37.77C35.07 37.73 34.41 37.49 34.39 37.46C34.37 37.43 34.12 37.34 34.07 37.14C34.07 37.14 34.07 37.14 34.01 37.07C33.7933 36.9359 33.5921 36.7783 33.41 36.6C33.3064 36.5176 33.196 36.444 33.08 36.38C33.08 36.38 33.08 36.38 33.08 36.32C33.0659 36.2894 33.0454 36.2622 33.02 36.24C32.7749 36.0561 32.5177 35.8891 32.25 35.74C32.19 35.74 31.98 35.4 31.9 35.37C31.82 35.34 31.77 35.14 31.72 35.15Z" fill="#111827"/>
<path d="M49.93 20C49.84 19.82 50.1 19.73 50.56 19.69C50.7768 19.6891 50.9913 19.7334 51.19 19.82C51.2921 19.9232 51.3826 20.0372 51.46 20.16C51.46 20.22 51.54 21.16 51.57 21.49C51.5932 21.7951 51.5696 22.102 51.5 22.4L51.21 24.2C51.191 24.3337 51.1469 24.4627 51.08 24.58C50.8824 24.9964 50.7735 25.4493 50.76 25.91C50.7435 25.9478 50.735 25.9887 50.735 26.03C50.735 26.0713 50.7435 26.1121 50.76 26.15C50.7891 26.6515 50.7385 27.1544 50.61 27.64C50.4239 28.0064 50.2603 28.3837 50.12 28.77C50.12 28.83 50.12 28.89 50.04 28.93C49.96 28.97 49.86 29.16 49.83 29.28C49.7986 29.4506 49.7518 29.6179 49.69 29.78C49.6262 29.8775 49.5448 29.9622 49.45 30.03C49.3283 30.08 49.1917 30.08 49.07 30.03C48.98 29.95 48.85 30.03 48.74 30.03C48.6968 30.0349 48.6532 30.0349 48.61 30.03C48.3818 29.6632 48.2067 29.2659 48.09 28.85L48 27.11C48.0056 27.0167 48.0367 26.9268 48.09 26.85C48.09 26.8 48.09 25.59 48.09 25.54C48.15 25.3 48.09 25.04 48.34 24.83C48.3595 24.7819 48.3595 24.7281 48.34 24.68C48.4125 24.2618 48.5195 23.8504 48.66 23.45C48.7139 23.2423 48.7573 23.032 48.79 22.82C48.8039 22.7834 48.8242 22.7495 48.85 22.72C48.8773 22.6754 48.9007 22.6286 48.92 22.58C49.0464 22.0929 49.1433 21.5987 49.21 21.1C49.21 20.98 49.53 20.48 49.53 20.35C49.53 20.22 50 20.09 49.93 20Z" fill="#111827"/>
<path d="M63.72 68.74C63.24 69.46 62.72 70.16 62.18 70.83C61.99 71.08 61.79 71.32 61.58 71.56C60.8333 72.3769 60.035 73.1451 59.19 73.86L58.07 74.86C57.5881 75.254 57.0728 75.6053 56.53 75.91C56.36 76 56.33 75.91 56.41 75.75C56.5344 75.4924 56.7076 75.2615 56.92 75.07C57.37 74.62 57.84 74.22 58.31 73.82C58.78 73.42 59.25 73 59.71 72.57C60.2606 72.0406 60.7688 71.4688 61.23 70.86C61.7632 70.2189 62.2639 69.5514 62.73 68.86C63.02 68.43 63.3 67.98 63.56 67.53C63.9563 66.8474 64.3135 66.143 64.63 65.42C64.86 64.85 65.04 64.28 65.23 63.71L65.35 63.33C65.53 62.87 65.65 62.75 65.86 62.7H66C66.14 62.7 66.19 62.93 66.14 63.31C66.0448 63.8727 65.9077 64.4276 65.73 64.97C65.5334 65.5171 65.303 66.0515 65.04 66.57C64.6518 67.3581 64.2177 68.1227 63.74 68.86L63.72 68.74Z" fill="#111827"/>
</svg>
