<svg width="24" height="24" viewBox="0 0 24 24" fill="none" xmlns="http://www.w3.org/2000/svg">
<rect width="24" height="24" rx="12" fill="#DC2626"/>
<path d="M10.5029 16.5C10.5029 16.303 10.5417 16.108 10.6171 15.926C10.6925 15.744 10.803 15.5786 10.9423 15.4393C11.0816 15.3 11.2469 15.1896 11.4289 15.1142C11.6109 15.0388 11.8059 15 12.0029 15C12.1999 15 12.395 15.0388 12.577 15.1142C12.7589 15.1896 12.9243 15.3 13.0636 15.4393C13.2029 15.5786 13.3134 15.744 13.3887 15.926C13.4641 16.108 13.5029 16.303 13.5029 16.5C13.5029 16.8978 13.3449 17.2793 13.0636 17.5607C12.7823 17.842 12.4008 18 12.0029 18C11.6051 18 11.2236 17.842 10.9423 17.5607C10.661 17.2793 10.5029 16.8978 10.5029 16.5ZM10.6499 7.49249C10.63 7.30325 10.65 7.11193 10.7087 6.93093C10.7675 6.74994 10.8636 6.58331 10.9909 6.44187C11.1182 6.30043 11.2738 6.18733 11.4476 6.10992C11.6215 6.0325 11.8096 5.99249 11.9999 5.99249C12.1902 5.99249 12.3784 6.0325 12.5522 6.10992C12.726 6.18733 12.8817 6.30043 13.009 6.44187C13.1362 6.58331 13.2324 6.74994 13.2911 6.93093C13.3499 7.11193 13.3699 7.30325 13.3499 7.49249L12.8249 12.753C12.8036 12.9569 12.7075 13.1458 12.5551 13.283C12.4028 13.4203 12.205 13.4962 11.9999 13.4962C11.7949 13.4962 11.5971 13.4203 11.4447 13.283C11.2924 13.1458 11.1963 12.9569 11.1749 12.753L10.6499 7.49249Z" fill="white"/>
</svg>
