<svg width="20" height="20" viewBox="0 0 20 20" fill="none" xmlns="http://www.w3.org/2000/svg">
<path d="M10 1.66669C5.405 1.66669 1.66667 5.40502 1.66667 10C1.66667 14.595 5.405 18.3334 10 18.3334C14.595 18.3334 18.3333 14.595 18.3333 10C18.3333 5.40502 14.595 1.66669 10 1.66669ZM3.33333 10C3.33333 9.25085 3.46333 8.53169 3.6925 7.85919L5 9.16669L6.66667 10.8334V12.5L8.33333 14.1667L9.16667 15V16.6092C5.88417 16.1967 3.33333 13.3934 3.33333 10ZM15.275 14.0609C14.7308 13.6225 13.9058 13.3334 13.3333 13.3334V12.5C13.3333 12.058 13.1577 11.6341 12.8452 11.3215C12.5326 11.0089 12.1087 10.8334 11.6667 10.8334H8.33333V8.33335C8.77536 8.33335 9.19928 8.15776 9.51185 7.8452C9.82441 7.53264 10 7.10871 10 6.66669V5.83335H10.8333C11.2754 5.83335 11.6993 5.65776 12.0118 5.3452C12.3244 5.03264 12.5 4.60871 12.5 4.16669V3.82419C14.94 4.81502 16.6667 7.20835 16.6667 10C16.6665 11.4706 16.1769 12.8993 15.275 14.0609Z" fill="#212529"/>
</svg>
